VTF_Mixo.ufo
<glyph name="exclam" format="1">
  <advance width="366"/>
  <unicode hex="0021"/>
  <outline>
    <contour>
      <point x="60" y="107" type="curve" smooth="yes"/>
      <point x="60" y="39"/>
      <point x="115" y="-16"/>
      <point x="183" y="-16" type="curve" smooth="yes"/>
      <point x="251" y="-16"/>
      <point x="306" y="39"/>
      <point x="306" y="107" type="curve" smooth="yes"/>
      <point x="306" y="174"/>
      <point x="252" y="227"/>
      <point x="185" y="230" type="curve"/>
      <point x="293" y="700" type="line"/>
      <point x="76" y="700" type="line"/>
      <point x="180" y="230" type="line"/>
      <point x="113" y="227"/>
      <point x="60" y="174"/>
    </contour>
  </outline>
</glyph>
<glyph name="ampersand" format="1">
  <advance width="845"/>
  <unicode hex="0026"/>
  <outline>
    <contour>
      <point x="531" y="576" type="curve" smooth="yes"/>
      <point x="531" y="649"/>
      <point x="481" y="728"/>
      <point x="369" y="728" type="curve" smooth="yes"/>
      <point x="247" y="728"/>
      <point x="186" y="633"/>
      <point x="186" y="525" type="curve" smooth="yes"/>
      <point x="186" y="488"/>
      <point x="192" y="451"/>
      <point x="203" y="416" type="curve"/>
      <point x="123" y="376"/>
      <point x="50" y="315"/>
      <point x="50" y="208" type="curve" smooth="yes"/>
      <point x="50" y="69"/>
      <point x="187" y="-9"/>
      <point x="327" y="-9" type="curve" smooth="yes"/>
      <point x="392" y="-9"/>
      <point x="468" y="5"/>
      <point x="517" y="34" type="curve"/>
      <point x="577" y="-1"/>
      <point x="665" y="-6"/>
      <point x="686" y="-6" type="curve" smooth="yes"/>
      <point x="717" y="-5"/>
      <point x="737" y="-2"/>
      <point x="747" y="4" type="curve"/>
      <point x="758" y="-7"/>
      <point x="767" y="-19"/>
      <point x="776" y="-33" type="curve" smooth="yes"/>
      <point x="791" y="-57"/>
      <point x="807" y="-92"/>
      <point x="811" y="-139" type="curve"/>
      <point x="824" y="-96"/>
      <point x="819" y="-63"/>
      <point x="811" y="-40" type="curve" smooth="yes"/>
      <point x="806" y="-27"/>
      <point x="800" y="-16"/>
      <point x="791" y="-7" type="curve"/>
      <point x="800" y="-12"/>
      <point x="809" y="-18"/>
      <point x="818" y="-26" type="curve" smooth="yes"/>
      <point x="834" y="-41"/>
      <point x="855" y="-64"/>
      <point x="874" y="-103" type="curve"/>
      <point x="874" y="-52"/>
      <point x="850" y="-19"/>
      <point x="825" y="4" type="curve" smooth="yes"/>
      <point x="810" y="17"/>
      <point x="794" y="27"/>
      <point x="775" y="36" type="curve"/>
      <point x="778" y="43"/>
      <point x="777" y="42"/>
      <point x="780" y="55" type="curve"/>
      <point x="788" y="110"/>
      <point x="740" y="206"/>
      <point x="694" y="249" type="curve"/>
      <point x="750" y="377"/>
      <point x="701" y="530"/>
      <point x="524" y="525" type="curve"/>
      <point x="525" y="532"/>
      <point x="531" y="552"/>
    </contour>
    <contour>
      <point x="454" y="152" type="curve"/>
      <point x="430" y="137"/>
      <point x="396" y="122"/>
      <point x="336" y="122" type="curve" smooth="yes"/>
      <point x="275" y="122"/>
      <point x="210" y="153"/>
      <point x="210" y="209" type="curve" smooth="yes"/>
      <point x="210" y="240"/>
      <point x="236" y="274"/>
      <point x="277" y="293" type="curve"/>
      <point x="333" y="225"/>
      <point x="402" y="179"/>
    </contour>
    <contour>
      <point x="489" y="459" type="curve"/>
      <point x="603" y="459"/>
      <point x="604" y="322"/>
      <point x="555" y="262" type="curve"/>
      <point x="483" y="293"/>
      <point x="440" y="331"/>
      <point x="405" y="371" type="curve"/>
      <point x="430" y="390"/>
      <point x="466" y="423"/>
    </contour>
    <contour>
      <point x="327" y="522" type="curve" smooth="yes"/>
      <point x="327" y="558"/>
      <point x="345" y="582"/>
      <point x="362" y="582" type="curve" smooth="yes"/>
      <point x="375" y="582"/>
      <point x="381" y="574"/>
      <point x="381" y="559" type="curve" smooth="yes"/>
      <point x="381" y="535"/>
      <point x="360" y="511"/>
      <point x="332" y="492" type="curve"/>
      <point x="329" y="503"/>
      <point x="327" y="513"/>
    </contour>
    <contour>
      <point x="525" y="123" type="curve"/>
      <point x="536" y="156"/>
      <point x="610" y="171"/>
      <point x="629" y="86" type="curve"/>
      <point x="597" y="43"/>
      <point x="535" y="63"/>
    </contour>
    <contour>
      <point x="576" y="146" type="curve"/>
      <point x="569" y="141"/>
      <point x="564" y="134"/>
      <point x="561" y="127" type="curve" smooth="yes"/>
      <point x="556" y="114"/>
      <point x="555" y="94"/>
      <point x="574" y="67" type="curve"/>
      <point x="579" y="90"/>
      <point x="580" y="109"/>
      <point x="579" y="124" type="curve" smooth="yes"/>
      <point x="578" y="132"/>
      <point x="577" y="139"/>
    </contour>
  </outline>
</glyph>
<glyph name="quotesingle" format="1">
  <advance width="210"/>
  <unicode hex="0027"/>
  <outline>
    <contour>
      <point x="35" y="570" type="line"/>
      <point x="95" y="434" type="line"/>
      <point x="115" y="434" type="line"/>
      <point x="175" y="570" type="line"/>
      <point x="175" y="700" type="line"/>
      <point x="35" y="700" type="line"/>
    </contour>
  </outline>
</glyph>
<glyph name="parenleft" format="1">
  <advance width="372"/>
  <unicode hex="0028"/>
  <outline>
    <contour>
      <point x="343" y="776" type="curve" smooth="yes"/>
      <point x="409" y="824"/>
      <point x="462" y="754"/>
      <point x="385" y="698" type="curve"/>
      <point x="256" y="607"/>
      <point x="177" y="475"/>
      <point x="177" y="316" type="curve" smooth="yes"/>
      <point x="177" y="164"/>
      <point x="264" y="32"/>
      <point x="376" y="-63" type="curve" smooth="yes"/>
      <point x="267" y="31"/>
      <point x="198" y="159"/>
      <point x="198" y="299" type="curve" smooth="yes"/>
      <point x="198" y="495"/>
      <point x="301" y="595"/>
      <point x="425" y="688" type="curve" smooth="yes"/>
      <point x="511" y="753"/>
      <point x="429" y="870"/>
      <point x="333" y="806" type="curve" smooth="yes"/>
      <point x="161" y="693"/>
      <point x="50" y="511"/>
      <point x="50" y="299" type="curve"/>
      <point x="51" y="108"/>
      <point x="152" y="-54"/>
      <point x="327" y="-179" type="curve"/>
      <point x="155" y="-31"/>
      <point x="78" y="111"/>
      <point x="78" y="299" type="curve" smooth="yes"/>
      <point x="78" y="498"/>
      <point x="175" y="656"/>
    </contour>
    <contour>
      <point x="386" y="-71" type="curve" smooth="yes"/>
      <point x="383" y="-68"/>
      <point x="379" y="-66"/>
      <point x="376" y="-63" type="curve" smooth="yes"/>
      <point x="379" y="-66"/>
      <point x="383" y="-68"/>
    </contour>
  </outline>
</glyph>
<glyph name="parenright" format="1">
  <advance width="370"/>
  <unicode hex="0029"/>
  <outline>
    <contour>
      <point x="27" y="-120" type="curve" smooth="yes"/>
      <point x="-39" y="-168"/>
      <point x="-89" y="-92"/>
      <point x="-15" y="-42" type="curve" smooth="yes"/>
      <point x="116" y="46"/>
      <point x="193" y="184"/>
      <point x="193" y="360" type="curve" smooth="yes"/>
      <point x="193" y="592"/>
      <point x="72" y="726"/>
      <point x="-55" y="782" type="curve"/>
      <point x="68" y="704"/>
      <point x="172" y="581"/>
      <point x="172" y="377" type="curve" smooth="yes"/>
      <point x="172" y="170"/>
      <point x="85" y="63"/>
      <point x="-41" y="-23" type="curve" smooth="yes"/>
      <point x="-145" y="-95"/>
      <point x="-62" y="-217"/>
      <point x="37" y="-150" type="curve"/>
      <point x="209" y="-37"/>
      <point x="320" y="143"/>
      <point x="320" y="357" type="curve" smooth="yes"/>
      <point x="320" y="500"/>
      <point x="282" y="652"/>
      <point x="108" y="778" type="curve"/>
      <point x="279" y="628"/>
      <point x="292" y="456"/>
      <point x="292" y="357" type="curve" smooth="yes"/>
      <point x="292" y="158"/>
      <point x="195" y="0"/>
    </contour>
  </outline>
</glyph>
<glyph name="asterisk" format="1">
  <advance width="297"/>
  <unicode hex="002A"/>
  <outline>
    <contour>
      <point x="262" y="523" type="curve" smooth="yes"/>
      <point x="259" y="525"/>
      <point x="255" y="526"/>
      <point x="252" y="527" type="curve"/>
      <point x="149" y="559" type="line"/>
      <point x="177" y="665" type="line"/>
      <point x="179" y="668"/>
      <point x="179" y="672"/>
      <point x="179" y="676" type="curve" smooth="yes"/>
      <point x="179" y="693"/>
      <point x="165" y="707"/>
      <point x="148" y="707" type="curve" smooth="yes"/>
      <point x="131" y="707"/>
      <point x="117" y="693"/>
      <point x="117" y="676" type="curve" smooth="yes"/>
      <point x="117" y="672"/>
      <point x="118" y="668"/>
      <point x="119" y="665" type="curve"/>
      <point x="147" y="559" type="line"/>
      <point x="45" y="527" type="line"/>
      <point x="42" y="526"/>
      <point x="38" y="525"/>
      <point x="35" y="523" type="curve" smooth="yes"/>
      <point x="20" y="514"/>
      <point x="16" y="495"/>
      <point x="25" y="480" type="curve" smooth="yes"/>
      <point x="34" y="466"/>
      <point x="53" y="461"/>
      <point x="68" y="470" type="curve" smooth="yes"/>
      <point x="71" y="472"/>
      <point x="74" y="475"/>
      <point x="76" y="478" type="curve"/>
      <point x="148" y="557" type="line"/>
      <point x="221" y="478" type="line"/>
      <point x="223" y="475"/>
      <point x="226" y="472"/>
      <point x="229" y="470" type="curve" smooth="yes"/>
      <point x="244" y="461"/>
      <point x="263" y="466"/>
      <point x="272" y="480" type="curve" smooth="yes"/>
      <point x="281" y="495"/>
      <point x="276" y="514"/>
    </contour>
  </outline>
</glyph>
<glyph name="comma" format="1">
  <advance width="297"/>
  <unicode hex="002C"/>
  <outline>
    <contour>
      <point x="60" y="0" type="line"/>
      <point x="180" y="0" type="line"/>
      <point x="183" y="-43"/>
      <point x="168" y="-122"/>
      <point x="61" y="-122" type="curve"/>
      <point x="61" y="-200" type="line"/>
      <point x="122" y="-200"/>
      <point x="270" y="-172"/>
      <point x="267" y="25" type="curve" smooth="yes"/>
      <point x="264" y="204" type="line"/>
      <point x="60" y="204" type="line"/>
    </contour>
  </outline>
</glyph>
<glyph name="hyphen" format="1">
  <advance width="331"/>
  <unicode hex="002D"/>
  <outline>
    <contour>
      <point x="18" y="372" type="curve" smooth="yes"/>
      <point x="18" y="343"/>
      <point x="40" y="321"/>
      <point x="69" y="321" type="curve" smooth="yes"/>
      <point x="255" y="321" type="line" smooth="yes"/>
      <point x="284" y="321"/>
      <point x="307" y="343"/>
      <point x="307" y="372" type="curve" smooth="yes"/>
      <point x="307" y="401"/>
      <point x="284" y="424"/>
      <point x="255" y="424" type="curve" smooth="yes"/>
      <point x="69" y="424" type="line" smooth="yes"/>
      <point x="40" y="424"/>
      <point x="18" y="401"/>
    </contour>
  </outline>
</glyph>
<glyph name="period" format="1">
  <advance width="379"/>
  <unicode hex="002E"/>
  <outline>
    <contour>
      <point x="192" y="93" type="line"/>
      <point x="260" y="-41" type="line"/>
      <point x="227" y="104" type="line"/>
      <point x="364" y="48" type="line"/>
      <point x="247" y="136" type="line"/>
      <point x="389" y="185" type="line"/>
      <point x="240" y="178" type="line"/>
      <point x="321" y="302" type="line"/>
      <point x="207" y="201" type="line"/>
      <point x="192" y="350" type="line"/>
      <point x="172" y="201" type="line"/>
      <point x="58" y="302" type="line"/>
      <point x="140" y="178" type="line"/>
      <point x="-10" y="185" type="line"/>
      <point x="135" y="136" type="line"/>
      <point x="15" y="48" type="line"/>
      <point x="155" y="104" type="line"/>
      <point x="123" y="-41" type="line"/>
    </contour>
  </outline>
</glyph>
<glyph name="slash" format="1">
  <advance width="472"/>
  <unicode hex="002F"/>
  <outline>
    <contour>
      <point x="-30" y="0" type="line"/>
      <point x="263" y="718" type="line"/>
      <point x="502" y="718" type="line"/>
      <point x="208" y="0" type="line"/>
    </contour>
  </outline>
</glyph>
<glyph name="zero" format="1">
  <advance width="576"/>
  <unicode hex="0030"/>
  <outline>
    <contour>
      <point x="60" y="349" type="curve" smooth="yes"/>
      <point x="60" y="149"/>
      <point x="163" y="-13"/>
      <point x="288" y="-13" type="curve" smooth="yes"/>
      <point x="413" y="-13"/>
      <point x="516" y="149"/>
      <point x="516" y="349" type="curve" smooth="yes"/>
      <point x="516" y="549"/>
      <point x="413" y="712"/>
      <point x="288" y="712" type="curve" smooth="yes"/>
      <point x="163" y="712"/>
      <point x="60" y="549"/>
    </contour>
    <contour>
      <point x="124" y="349" type="curve" smooth="yes"/>
      <point x="124" y="482"/>
      <point x="187" y="639"/>
      <point x="288" y="639" type="curve" smooth="yes"/>
      <point x="389" y="639"/>
      <point x="452" y="482"/>
      <point x="452" y="349" type="curve" smooth="yes"/>
      <point x="452" y="216"/>
      <point x="389" y="50"/>
      <point x="288" y="50" type="curve" smooth="yes"/>
      <point x="187" y="50"/>
      <point x="124" y="216"/>
    </contour>
  </outline>
</glyph>
<glyph name="one" format="1">
  <advance width="283"/>
  <unicode hex="0031"/>
  <outline>
    <contour>
      <point x="142" y="700" type="line"/>
      <point x="142" y="618"/>
      <point x="75" y="604"/>
      <point x="75" y="604" type="curve"/>
      <point x="75" y="0" type="line"/>
      <point x="203" y="0" type="line"/>
      <point x="203" y="700" type="line"/>
    </contour>
  </outline>
</glyph>
<glyph name="two" format="1">
  <advance width="496"/>
  <unicode hex="0032"/>
  <outline>
    <contour>
      <point x="334" y="501" type="curve" smooth="yes"/>
      <point x="334" y="279"/>
      <point x="51" y="69"/>
      <point x="-10" y="0" type="curve"/>
      <point x="426" y="0" type="line"/>
      <point x="446" y="189" type="line"/>
      <point x="422" y="125"/>
      <point x="417" y="78"/>
      <point x="334" y="78" type="curve" smooth="yes"/>
      <point x="113" y="78" type="line"/>
      <point x="170" y="143"/>
      <point x="427" y="328"/>
      <point x="427" y="522" type="curve" smooth="yes"/>
      <point x="427" y="637"/>
      <point x="348" y="708"/>
      <point x="236" y="708" type="curve" smooth="yes"/>
      <point x="125" y="708"/>
      <point x="37" y="639"/>
      <point x="37" y="533" type="curve" smooth="yes"/>
      <point x="37" y="434"/>
      <point x="119" y="391"/>
      <point x="129" y="391" type="curve"/>
      <point x="117" y="396"/>
      <point x="66" y="443"/>
      <point x="66" y="512" type="curve" smooth="yes"/>
      <point x="66" y="592"/>
      <point x="119" y="654"/>
      <point x="202" y="654" type="curve" smooth="yes"/>
      <point x="271" y="654"/>
      <point x="334" y="600"/>
    </contour>
  </outline>
</glyph>
<glyph name="three" format="1">
  <advance width="490"/>
  <unicode hex="0033"/>
  <outline>
    <contour>
      <point x="60" y="593" type="curve" smooth="yes"/>
      <point x="60" y="558"/>
      <point x="87" y="532"/>
      <point x="118" y="532" type="curve" smooth="yes"/>
      <point x="149" y="532"/>
      <point x="176" y="555"/>
      <point x="176" y="590" type="curve" smooth="yes"/>
      <point x="176" y="625"/>
      <point x="148" y="646"/>
      <point x="120" y="646" type="curve" smooth="yes"/>
      <point x="108" y="646"/>
      <point x="99" y="642"/>
      <point x="96" y="641" type="curve"/>
      <point x="115" y="668"/>
      <point x="147" y="678"/>
      <point x="174" y="678" type="curve" smooth="yes"/>
      <point x="246" y="678"/>
      <point x="306" y="629"/>
      <point x="306" y="540" type="curve" smooth="yes"/>
      <point x="306" y="473"/>
      <point x="262" y="380"/>
      <point x="146" y="380" type="curve"/>
      <point x="146" y="365" type="line"/>
      <point x="257" y="365"/>
      <point x="335" y="301"/>
      <point x="335" y="197" type="curve" smooth="yes"/>
      <point x="335" y="106"/>
      <point x="270" y="26"/>
      <point x="178" y="26" type="curve" smooth="yes"/>
      <point x="134" y="26"/>
      <point x="87" y="45"/>
      <point x="58" y="76" type="curve"/>
      <point x="67" y="73"/>
      <point x="75" y="71"/>
      <point x="83" y="71" type="curve" smooth="yes"/>
      <point x="118" y="71"/>
      <point x="146" y="99"/>
      <point x="146" y="134" type="curve" smooth="yes"/>
      <point x="146" y="169"/>
      <point x="118" y="197"/>
      <point x="83" y="197" type="curve" smooth="yes"/>
      <point x="48" y="197"/>
      <point x="20" y="169"/>
      <point x="20" y="134" type="curve" smooth="yes"/>
      <point x="20" y="75"/>
      <point x="93" y="-8"/>
      <point x="226" y="-8" type="curve" smooth="yes"/>
      <point x="350" y="-8"/>
      <point x="450" y="91"/>
      <point x="450" y="195" type="curve" smooth="yes"/>
      <point x="450" y="334"/>
      <point x="295" y="371"/>
      <point x="252" y="376" type="curve"/>
      <point x="294" y="386"/>
      <point x="414" y="439"/>
      <point x="414" y="553" type="curve" smooth="yes"/>
      <point x="414" y="642"/>
      <point x="329" y="710"/>
      <point x="223" y="710" type="curve" smooth="yes"/>
      <point x="148" y="710"/>
      <point x="60" y="665"/>
    </contour>
    <contour>
      <point x="381" y="195" type="curve" smooth="yes"/>
      <point x="381" y="258"/>
      <point x="356" y="296"/>
      <point x="327" y="320" type="curve" smooth="yes"/>
      <point x="310" y="334"/>
      <point x="290" y="345"/>
      <point x="268" y="353" type="curve"/>
      <point x="292" y="347"/>
      <point x="314" y="337"/>
      <point x="333" y="324" type="curve" smooth="yes"/>
      <point x="366" y="301"/>
      <point x="405" y="261"/>
      <point x="405" y="194" type="curve" smooth="yes"/>
      <point x="405" y="51"/>
      <point x="267" y="20"/>
      <point x="248" y="17" type="curve"/>
      <point x="271" y="22"/>
      <point x="381" y="69"/>
    </contour>
    <contour>
      <point x="371" y="548" type="curve" smooth="yes"/>
      <point x="371" y="421"/>
      <point x="249" y="391"/>
      <point x="237" y="389" type="curve" smooth="yes"/>
      <point x="251" y="392"/>
      <point x="348" y="430"/>
      <point x="348" y="544" type="curve" smooth="yes"/>
      <point x="348" y="672"/>
      <point x="234" y="689"/>
      <point x="209" y="692" type="curve"/>
      <point x="229" y="692"/>
      <point x="371" y="692"/>
    </contour>
    <contour>
      <point x="81" y="594" type="curve" smooth="yes"/>
      <point x="81" y="605"/>
      <point x="90" y="614"/>
      <point x="101" y="614" type="curve" smooth="yes"/>
      <point x="112" y="614"/>
      <point x="121" y="605"/>
      <point x="121" y="594" type="curve" smooth="yes"/>
      <point x="121" y="583"/>
      <point x="112" y="574"/>
      <point x="101" y="574" type="curve" smooth="yes"/>
      <point x="90" y="574"/>
      <point x="81" y="583"/>
    </contour>
    <contour>
      <point x="46" y="151" type="curve" smooth="yes"/>
      <point x="46" y="162"/>
      <point x="55" y="171"/>
      <point x="66" y="171" type="curve" smooth="yes"/>
      <point x="77" y="171"/>
      <point x="86" y="162"/>
      <point x="86" y="151" type="curve" smooth="yes"/>
      <point x="86" y="140"/>
      <point x="77" y="131"/>
      <point x="66" y="131" type="curve" smooth="yes"/>
      <point x="55" y="131"/>
      <point x="46" y="140"/>
    </contour>
  </outline>
</glyph>
<glyph name="four" format="1">
  <advance width="609"/>
  <unicode hex="0034"/>
  <outline>
    <contour>
      <point x="322" y="127" type="line"/>
      <point x="322" y="0" type="line"/>
      <point x="476" y="0" type="line"/>
      <point x="476" y="127" type="line"/>
      <point x="599" y="127" type="line"/>
      <point x="599" y="271" type="line"/>
      <point x="476" y="271" type="line"/>
      <point x="476" y="720" type="line"/>
      <point x="-30" y="127" type="line"/>
    </contour>
    <contour>
      <point x="324" y="338" type="line"/>
      <point x="324" y="269" type="line"/>
      <point x="270" y="269" type="line"/>
    </contour>
  </outline>
</glyph>
<glyph name="five" format="1">
  <advance width="383"/>
  <unicode hex="0035"/>
  <outline>
    <contour>
      <point x="36" y="306" type="line"/>
      <point x="36" y="306"/>
      <point x="79" y="341"/>
      <point x="166" y="341" type="curve"/>
      <point x="256" y="341"/>
      <point x="323" y="312"/>
      <point x="323" y="233" type="curve" smooth="yes"/>
      <point x="323" y="155"/>
      <point x="253" y="123"/>
      <point x="166" y="123" type="curve"/>
      <point x="77" y="123"/>
      <point x="30" y="177"/>
      <point x="30" y="177" type="curve"/>
      <point x="20" y="35" type="line"/>
      <point x="20" y="35"/>
      <point x="70" y="-8"/>
      <point x="166" y="-8" type="curve"/>
      <point x="293" y="-8"/>
      <point x="364" y="96"/>
      <point x="364" y="233" type="curve" smooth="yes"/>
      <point x="364" y="376"/>
      <point x="289" y="472"/>
      <point x="166" y="472" type="curve"/>
      <point x="107" y="472"/>
      <point x="85" y="455"/>
      <point x="85" y="455" type="curve"/>
      <point x="90" y="562" type="line"/>
      <point x="324" y="562" type="line"/>
      <point x="334" y="700" type="line"/>
      <point x="56" y="700" type="line"/>
    </contour>
  </outline>
</glyph>
<glyph name="six" format="1">
  <advance width="559"/>
  <unicode hex="0036"/>
  <outline>
    <contour>
      <point x="60" y="199" type="curve" smooth="yes"/>
      <point x="60" y="75"/>
      <point x="160" y="-15"/>
      <point x="284" y="-15" type="curve" smooth="yes"/>
      <point x="408" y="-15"/>
      <point x="509" y="85"/>
      <point x="509" y="209" type="curve" smooth="yes"/>
      <point x="509" y="333"/>
      <point x="408" y="432"/>
      <point x="284" y="432" type="curve" smooth="yes"/>
      <point x="273" y="432"/>
      <point x="261" y="430"/>
      <point x="250" y="427" type="curve"/>
      <point x="376" y="700" type="line"/>
      <point x="258" y="700" type="line"/>
      <point x="92" y="331" type="line"/>
      <point x="77" y="298"/>
      <point x="60" y="251"/>
    </contour>
    <contour>
      <point x="171" y="209" type="curve" smooth="yes"/>
      <point x="171" y="270"/>
      <point x="221" y="318"/>
      <point x="284" y="318" type="curve" smooth="yes"/>
      <point x="345" y="318"/>
      <point x="397" y="270"/>
      <point x="397" y="209" type="curve" smooth="yes"/>
      <point x="397" y="148"/>
      <point x="345" y="100"/>
      <point x="284" y="100" type="curve" smooth="yes"/>
      <point x="221" y="100"/>
      <point x="171" y="148"/>
    </contour>
  </outline>
</glyph>
<glyph name="seven" format="1">
  <advance width="413"/>
  <unicode hex="0037"/>
  <outline>
    <contour>
      <point x="13" y="691" type="line"/>
      <point x="14" y="680"/>
      <point x="16" y="667"/>
      <point x="16" y="652" type="curve" smooth="yes"/>
      <point x="16" y="637"/>
      <point x="14" y="624"/>
      <point x="13" y="613" type="curve" smooth="yes"/>
      <point x="12" y="607"/>
      <point x="11" y="601"/>
      <point x="10" y="596" type="curve"/>
      <point x="34" y="600"/>
      <point x="62" y="603"/>
      <point x="95" y="606" type="curve" smooth="yes"/>
      <point x="151" y="611"/>
      <point x="234" y="616"/>
      <point x="345" y="616" type="curve"/>
      <point x="265" y="427"/>
      <point x="184" y="272"/>
      <point x="123" y="164" type="curve" smooth="yes"/>
      <point x="87" y="100"/>
      <point x="53" y="43"/>
      <point x="22" y="-6" type="curve"/>
      <point x="27" y="-5"/>
      <point x="34" y="-4"/>
      <point x="41" y="-3" type="curve" smooth="yes"/>
      <point x="53" y="-2"/>
      <point x="70" y="0"/>
      <point x="90" y="0" type="curve" smooth="yes"/>
      <point x="109" y="0"/>
      <point x="123" y="-2"/>
      <point x="134" y="-3" type="curve" smooth="yes"/>
      <point x="141" y="-4"/>
      <point x="146" y="-5"/>
      <point x="151" y="-6" type="curve"/>
      <point x="162" y="21"/>
      <point x="174" y="52"/>
      <point x="188" y="87" type="curve" smooth="yes"/>
      <point x="212" y="147"/>
      <point x="247" y="230"/>
      <point x="294" y="333" type="curve" smooth="yes"/>
      <point x="342" y="438"/>
      <point x="387" y="530"/>
      <point x="420" y="598" type="curve" smooth="yes"/>
      <point x="439" y="637"/>
      <point x="457" y="673"/>
      <point x="473" y="706" type="curve"/>
      <point x="455" y="705"/>
      <point x="434" y="704"/>
      <point x="411" y="703" type="curve" smooth="yes"/>
      <point x="371" y="700"/>
      <point x="313" y="700"/>
      <point x="244" y="700" type="curve" smooth="yes"/>
      <point x="176" y="700"/>
      <point x="120" y="700"/>
      <point x="77" y="703" type="curve" smooth="yes"/>
      <point x="52" y="704"/>
      <point x="30" y="705"/>
      <point x="10" y="706" type="curve"/>
    </contour>
  </outline>
</glyph>
<glyph name="eight" format="1">
  <advance width="473"/>
  <unicode hex="0038"/>
  <outline>
    <contour>
      <point x="483" y="109" type="line"/>
      <point x="261" y="399" type="line"/>
      <point x="364" y="726" type="line"/>
      <point x="10" y="589" type="line"/>
      <point x="219" y="316" type="line"/>
      <point x="100" y="-30" type="line"/>
    </contour>
    <contour>
      <point x="351" y="144" type="line"/>
      <point x="167" y="46" type="line"/>
      <point x="224" y="309" type="line"/>
    </contour>
    <contour>
      <point x="302" y="650" type="line"/>
      <point x="254" y="409" type="line"/>
      <point x="143" y="555" type="line"/>
    </contour>
  </outline>
</glyph>
<glyph name="nine" format="1">
  <advance width="654"/>
  <unicode hex="0039"/>
  <outline>
    <contour>
      <point x="50" y="167" type="line"/>
      <point x="59" y="132"/>
      <point x="75" y="102"/>
      <point x="97" y="75" type="curve" smooth="yes"/>
      <point x="134" y="30"/>
      <point x="196" y="-17"/>
      <point x="303" y="-17" type="curve" smooth="yes"/>
      <point x="427" y="-17"/>
      <point x="594" y="79"/>
      <point x="594" y="336" type="curve" smooth="yes"/>
      <point x="594" y="625"/>
      <point x="451" y="715"/>
      <point x="310" y="715" type="curve" smooth="yes"/>
      <point x="195" y="715"/>
      <point x="65" y="645"/>
      <point x="65" y="488" type="curve" smooth="yes"/>
      <point x="65" y="313"/>
      <point x="215" y="253"/>
      <point x="295" y="253" type="curve" smooth="yes"/>
      <point x="387" y="253"/>
      <point x="448" y="305"/>
      <point x="480" y="347" type="curve"/>
      <point x="480" y="338" type="line" smooth="yes"/>
      <point x="480" y="198"/>
      <point x="414" y="91"/>
      <point x="305" y="91" type="curve" smooth="yes"/>
      <point x="249" y="91"/>
      <point x="213" y="123"/>
      <point x="190" y="156" type="curve" smooth="yes"/>
      <point x="177" y="175"/>
      <point x="166" y="196"/>
      <point x="158" y="221" type="curve"/>
    </contour>
    <contour>
      <point x="315" y="601" type="curve" smooth="yes"/>
      <point x="389" y="601"/>
      <point x="438" y="541"/>
      <point x="438" y="487" type="curve" smooth="yes"/>
      <point x="438" y="427"/>
      <point x="386" y="369"/>
      <point x="305" y="369" type="curve" smooth="yes"/>
      <point x="224" y="369"/>
      <point x="189" y="430"/>
      <point x="189" y="486" type="curve" smooth="yes"/>
      <point x="189" y="543"/>
      <point x="235" y="601"/>
    </contour>
  </outline>
</glyph>
<glyph name="colon" format="1">
  <advance width="311"/>
  <unicode hex="003A"/>
  <outline>
    <contour>
      <point x="60" y="501" type="curve" smooth="yes"/>
      <point x="60" y="448"/>
      <point x="102" y="406"/>
      <point x="155" y="406" type="curve" smooth="yes"/>
      <point x="208" y="406"/>
      <point x="251" y="448"/>
      <point x="251" y="501" type="curve" smooth="yes"/>
      <point x="251" y="554"/>
      <point x="208" y="597"/>
      <point x="155" y="597" type="curve" smooth="yes"/>
      <point x="102" y="597"/>
      <point x="60" y="554"/>
    </contour>
    <contour>
      <point x="71" y="107" type="line"/>
      <point x="239" y="107" type="line"/>
      <point x="239" y="278" type="line"/>
      <point x="71" y="278" type="line"/>
    </contour>
  </outline>
</glyph>
<glyph name="semicolon" format="1">
  <advance width="311"/>
  <unicode hex="003B"/>
  <outline>
    <contour>
      <point x="60" y="501" type="curve" smooth="yes"/>
      <point x="60" y="448"/>
      <point x="102" y="406"/>
      <point x="155" y="406" type="curve" smooth="yes"/>
      <point x="208" y="406"/>
      <point x="251" y="448"/>
      <point x="251" y="501" type="curve" smooth="yes"/>
      <point x="251" y="554"/>
      <point x="208" y="597"/>
      <point x="155" y="597" type="curve" smooth="yes"/>
      <point x="102" y="597"/>
      <point x="60" y="554"/>
    </contour>
    <contour>
      <point x="71" y="-75" type="line"/>
      <point x="239" y="193" type="line"/>
      <point x="239" y="278" type="line"/>
      <point x="71" y="278" type="line"/>
    </contour>
  </outline>
</glyph>
<glyph name="question" format="1">
  <advance width="374"/>
  <unicode hex="003F"/>
  <outline>
    <contour>
      <point x="121" y="203" type="line"/>
      <point x="186" y="203" type="line"/>
      <point x="204" y="328" type="line"/>
      <point x="284" y="349"/>
      <point x="338" y="422"/>
      <point x="338" y="519" type="curve" smooth="yes"/>
      <point x="338" y="631"/>
      <point x="257" y="719"/>
      <point x="153" y="719" type="curve" smooth="yes"/>
      <point x="128" y="719"/>
      <point x="107" y="712"/>
      <point x="92" y="705" type="curve" smooth="yes"/>
      <point x="83" y="701"/>
      <point x="76" y="696"/>
      <point x="69" y="691" type="curve"/>
      <point x="69" y="565" type="line"/>
      <point x="85" y="596"/>
      <point x="118" y="614"/>
      <point x="153" y="614" type="curve" smooth="yes"/>
      <point x="205" y="614"/>
      <point x="244" y="574"/>
      <point x="244" y="519" type="curve" smooth="yes"/>
      <point x="244" y="458"/>
      <point x="201" y="413"/>
      <point x="149" y="413" type="curve" smooth="yes"/>
      <point x="141" y="413"/>
      <point x="128" y="414"/>
      <point x="111" y="418" type="curve"/>
    </contour>
    <contour>
      <point x="93" y="64" type="curve" smooth="yes"/>
      <point x="93" y="24"/>
      <point x="120" y="-8"/>
      <point x="152" y="-8" type="curve" smooth="yes"/>
      <point x="183" y="-8"/>
      <point x="212" y="24"/>
      <point x="212" y="64" type="curve" smooth="yes"/>
      <point x="212" y="104"/>
      <point x="184" y="137"/>
      <point x="152" y="137" type="curve" smooth="yes"/>
      <point x="121" y="137"/>
      <point x="93" y="104"/>
    </contour>
  </outline>
</glyph>
<glyph name="at" format="1">
  <advance width="533"/>
  <unicode hex="0040"/>
  <outline>
    <contour>
      <point x="503" y="222" type="line"/>
      <point x="172" y="222" type="line"/>
      <point x="172" y="324" type="line"/>
      <point x="328" y="616" type="line"/>
      <point x="227" y="616" type="line" smooth="yes"/>
      <point x="121" y="616"/>
      <point x="67" y="567"/>
      <point x="67" y="453" type="curve" smooth="yes"/>
      <point x="67" y="263" type="line" smooth="yes"/>
      <point x="67" y="121"/>
      <point x="139" y="102"/>
      <point x="227" y="102" type="curve" smooth="yes"/>
      <point x="451" y="102" type="line"/>
      <point x="451" y="0" type="line"/>
      <point x="227" y="0" type="line" smooth="yes"/>
      <point x="73" y="0"/>
      <point x="60" y="168"/>
      <point x="60" y="263" type="curve" smooth="yes"/>
      <point x="60" y="453" type="line" smooth="yes"/>
      <point x="60" y="591"/>
      <point x="78" y="718"/>
      <point x="227" y="718" type="curve" smooth="yes"/>
      <point x="329" y="718" type="line"/>
      <point x="503" y="324" type="line"/>
    </contour>
    <contour>
      <point x="211" y="324" type="line"/>
      <point x="469" y="324" type="line"/>
      <point x="338" y="616" type="line"/>
      <point x="332" y="616" type="line"/>
      <point x="332" y="548" type="line"/>
    </contour>
  </outline>
</glyph>
<glyph name="B" format="1">
  <advance width="605"/>
  <unicode hex="0042"/>
  <outline>
    <contour>
      <point x="80" y="0" type="line"/>
      <point x="495" y="0" type="line"/>
      <point x="508" y="13"/>
      <point x="519" y="29"/>
      <point x="530" y="47" type="curve" smooth="yes"/>
      <point x="547" y="78"/>
      <point x="565" y="125"/>
      <point x="565" y="181" type="curve" smooth="yes"/>
      <point x="565" y="293"/>
      <point x="498" y="351"/>
      <point x="495" y="354" type="curve"/>
      <point x="498" y="361"/>
      <point x="553" y="416"/>
      <point x="553" y="525" type="curve" smooth="yes"/>
      <point x="553" y="574"/>
      <point x="537" y="619"/>
      <point x="520" y="650" type="curve" smooth="yes"/>
      <point x="509" y="668"/>
      <point x="498" y="685"/>
      <point x="485" y="700" type="curve"/>
      <point x="80" y="700" type="line"/>
    </contour>
    <contour>
      <point x="356" y="191" type="curve" smooth="yes"/>
      <point x="356" y="120"/>
      <point x="310" y="46"/>
      <point x="289" y="16" type="curve"/>
      <point x="289" y="344" type="line"/>
      <point x="310" y="323"/>
      <point x="356" y="267"/>
    </contour>
    <contour>
      <point x="344" y="525" type="curve" smooth="yes"/>
      <point x="344" y="456"/>
      <point x="308" y="399"/>
      <point x="289" y="371" type="curve"/>
      <point x="289" y="666" type="line"/>
      <point x="314" y="635"/>
      <point x="344" y="585"/>
    </contour>
  </outline>
</glyph>
<glyph name="E" format="1">
  <advance width="828"/>
  <unicode hex="0045"/>
  <outline>
    <contour>
      <point x="75" y="350" type="curve" smooth="yes"/>
      <point x="75" y="291"/>
      <point x="111" y="245"/>
      <point x="164" y="230" type="curve"/>
      <point x="111" y="215"/>
      <point x="75" y="168"/>
      <point x="75" y="109" type="curve" smooth="yes"/>
      <point x="75" y="40"/>
      <point x="127" y="-15"/>
      <point x="196" y="-15" type="curve" smooth="yes"/>
      <point x="253" y="-15"/>
      <point x="299" y="23"/>
      <point x="314" y="76" type="curve"/>
      <point x="327" y="23"/>
      <point x="372" y="-15"/>
      <point x="431" y="-15" type="curve" smooth="yes"/>
      <point x="488" y="-15"/>
      <point x="534" y="23"/>
      <point x="549" y="76" type="curve"/>
      <point x="562" y="23"/>
      <point x="607" y="-15"/>
      <point x="666" y="-15" type="curve" smooth="yes"/>
      <point x="734" y="-15"/>
      <point x="788" y="40"/>
      <point x="788" y="109" type="curve" smooth="yes"/>
      <point x="788" y="177"/>
      <point x="734" y="234"/>
      <point x="666" y="234" type="curve" smooth="yes"/>
      <point x="607" y="234"/>
      <point x="562" y="196"/>
      <point x="549" y="141" type="curve"/>
      <point x="538" y="185"/>
      <point x="505" y="218"/>
      <point x="462" y="230" type="curve"/>
      <point x="515" y="245"/>
      <point x="553" y="291"/>
      <point x="553" y="350" type="curve" smooth="yes"/>
      <point x="553" y="409"/>
      <point x="515" y="456"/>
      <point x="462" y="471" type="curve"/>
      <point x="505" y="482"/>
      <point x="538" y="515"/>
      <point x="549" y="558" type="curve"/>
      <point x="562" y="505"/>
      <point x="607" y="467"/>
      <point x="666" y="467" type="curve" smooth="yes"/>
      <point x="734" y="467"/>
      <point x="788" y="522"/>
      <point x="788" y="591" type="curve" smooth="yes"/>
      <point x="788" y="659"/>
      <point x="734" y="716"/>
      <point x="666" y="716" type="curve" smooth="yes"/>
      <point x="607" y="716"/>
      <point x="562" y="678"/>
      <point x="549" y="623" type="curve"/>
      <point x="534" y="678"/>
      <point x="490" y="716"/>
      <point x="431" y="716" type="curve" smooth="yes"/>
      <point x="372" y="716"/>
      <point x="327" y="678"/>
      <point x="314" y="623" type="curve"/>
      <point x="299" y="678"/>
      <point x="255" y="716"/>
      <point x="196" y="716" type="curve" smooth="yes"/>
      <point x="127" y="716"/>
      <point x="75" y="659"/>
      <point x="75" y="591" type="curve" smooth="yes"/>
      <point x="75" y="532"/>
      <point x="111" y="486"/>
      <point x="164" y="471" type="curve"/>
      <point x="111" y="456"/>
      <point x="75" y="409"/>
    </contour>
    <contour>
      <point x="331" y="350" type="curve" smooth="yes"/>
      <point x="331" y="407"/>
      <point x="374" y="453"/>
      <point x="431" y="453" type="curve" smooth="yes"/>
      <point x="488" y="453"/>
      <point x="531" y="407"/>
      <point x="531" y="350" type="curve" smooth="yes"/>
      <point x="531" y="294"/>
      <point x="488" y="248"/>
      <point x="431" y="248" type="curve" smooth="yes"/>
      <point x="374" y="248"/>
      <point x="331" y="294"/>
    </contour>
    <contour>
      <point x="96" y="350" type="curve" smooth="yes"/>
      <point x="96" y="407"/>
      <point x="139" y="453"/>
      <point x="196" y="453" type="curve" smooth="yes"/>
      <point x="253" y="453"/>
      <point x="296" y="407"/>
      <point x="296" y="350" type="curve" smooth="yes"/>
      <point x="296" y="294"/>
      <point x="253" y="248"/>
      <point x="196" y="248" type="curve" smooth="yes"/>
      <point x="139" y="248"/>
      <point x="96" y="294"/>
    </contour>
    <contour>
      <point x="96" y="109" type="curve" smooth="yes"/>
      <point x="96" y="166"/>
      <point x="139" y="212"/>
      <point x="196" y="212" type="curve" smooth="yes"/>
      <point x="253" y="212"/>
      <point x="296" y="166"/>
      <point x="296" y="109" type="curve" smooth="yes"/>
      <point x="296" y="53"/>
      <point x="253" y="7"/>
      <point x="196" y="7" type="curve" smooth="yes"/>
      <point x="139" y="7"/>
      <point x="96" y="53"/>
    </contour>
    <contour>
      <point x="331" y="109" type="curve" smooth="yes"/>
      <point x="331" y="166"/>
      <point x="374" y="212"/>
      <point x="431" y="212" type="curve" smooth="yes"/>
      <point x="488" y="212"/>
      <point x="531" y="166"/>
      <point x="531" y="109" type="curve" smooth="yes"/>
      <point x="531" y="53"/>
      <point x="488" y="7"/>
      <point x="431" y="7" type="curve" smooth="yes"/>
      <point x="374" y="7"/>
      <point x="331" y="53"/>
    </contour>
    <contour>
      <point x="566" y="109" type="curve" smooth="yes"/>
      <point x="566" y="166"/>
      <point x="609" y="212"/>
      <point x="666" y="212" type="curve" smooth="yes"/>
      <point x="723" y="212"/>
      <point x="766" y="166"/>
      <point x="766" y="109" type="curve" smooth="yes"/>
      <point x="766" y="53"/>
      <point x="723" y="7"/>
      <point x="666" y="7" type="curve" smooth="yes"/>
      <point x="609" y="7"/>
      <point x="566" y="53"/>
    </contour>
    <contour>
      <point x="566" y="591" type="curve" smooth="yes"/>
      <point x="566" y="648"/>
      <point x="609" y="694"/>
      <point x="666" y="694" type="curve" smooth="yes"/>
      <point x="723" y="694"/>
      <point x="766" y="648"/>
      <point x="766" y="591" type="curve" smooth="yes"/>
      <point x="766" y="535"/>
      <point x="723" y="489"/>
      <point x="666" y="489" type="curve" smooth="yes"/>
      <point x="609" y="489"/>
      <point x="566" y="535"/>
    </contour>
    <contour>
      <point x="96" y="591" type="curve" smooth="yes"/>
      <point x="96" y="648"/>
      <point x="139" y="694"/>
      <point x="196" y="694" type="curve" smooth="yes"/>
      <point x="253" y="694"/>
      <point x="296" y="648"/>
      <point x="296" y="591" type="curve" smooth="yes"/>
      <point x="296" y="535"/>
      <point x="253" y="489"/>
      <point x="196" y="489" type="curve" smooth="yes"/>
      <point x="139" y="489"/>
      <point x="96" y="535"/>
    </contour>
    <contour>
      <point x="331" y="591" type="curve" smooth="yes"/>
      <point x="331" y="648"/>
      <point x="374" y="694"/>
      <point x="431" y="694" type="curve" smooth="yes"/>
      <point x="488" y="694"/>
      <point x="531" y="648"/>
      <point x="531" y="591" type="curve" smooth="yes"/>
      <point x="531" y="535"/>
      <point x="488" y="489"/>
      <point x="431" y="489" type="curve" smooth="yes"/>
      <point x="374" y="489"/>
      <point x="331" y="535"/>
    </contour>
    <contour>
      <point x="314" y="317" type="curve"/>
      <point x="325" y="274"/>
      <point x="356" y="241"/>
      <point x="399" y="230" type="curve"/>
      <point x="356" y="218"/>
      <point x="325" y="185"/>
      <point x="314" y="141" type="curve"/>
      <point x="303" y="185"/>
      <point x="270" y="218"/>
      <point x="227" y="230" type="curve"/>
      <point x="270" y="241"/>
      <point x="303" y="274"/>
    </contour>
    <contour>
      <point x="314" y="558" type="curve"/>
      <point x="325" y="515"/>
      <point x="356" y="482"/>
      <point x="399" y="471" type="curve"/>
      <point x="356" y="459"/>
      <point x="325" y="426"/>
      <point x="314" y="382" type="curve"/>
      <point x="303" y="426"/>
      <point x="270" y="459"/>
      <point x="227" y="471" type="curve"/>
      <point x="270" y="482"/>
      <point x="303" y="515"/>
    </contour>
  </outline>
</glyph>
<glyph name="F" format="1">
  <advance width="503"/>
  <unicode hex="0046"/>
  <outline>
    <contour>
      <point x="485" y="700" type="curve"/>
      <point x="253" y="700" type="line" smooth="yes"/>
      <point x="147" y="700"/>
      <point x="60" y="613"/>
      <point x="60" y="507" type="curve" smooth="yes"/>
      <point x="60" y="456"/>
      <point x="79" y="409"/>
      <point x="111" y="376" type="curve"/>
      <point x="87" y="342"/>
      <point x="72" y="302"/>
      <point x="72" y="258" type="curve" smooth="yes"/>
      <point x="72" y="7" type="line" smooth="yes"/>
      <point x="72" y="4"/>
      <point x="74" y="0"/>
      <point x="79" y="0" type="curve" smooth="yes"/>
      <point x="203" y="0" type="line" smooth="yes"/>
      <point x="206" y="0"/>
      <point x="210" y="2"/>
      <point x="210" y="7" type="curve" smooth="yes"/>
      <point x="210" y="258" type="line" smooth="yes"/>
      <point x="210" y="289"/>
      <point x="234" y="313"/>
      <point x="266" y="313" type="curve" smooth="yes"/>
      <point x="442" y="313" type="line" smooth="yes"/>
      <point x="445" y="313"/>
      <point x="448" y="317"/>
      <point x="448" y="320" type="curve" smooth="yes"/>
      <point x="448" y="445" type="line" smooth="yes"/>
      <point x="448" y="449"/>
      <point x="445" y="452"/>
      <point x="442" y="452" type="curve" smooth="yes"/>
      <point x="253" y="452" type="line" smooth="yes"/>
      <point x="222" y="452"/>
      <point x="196" y="477"/>
      <point x="196" y="507" type="curve" smooth="yes"/>
      <point x="196" y="538"/>
      <point x="222" y="563"/>
      <point x="253" y="563" type="curve" smooth="yes"/>
      <point x="485" y="563" type="line" smooth="yes"/>
      <point x="490" y="563"/>
      <point x="493" y="566"/>
      <point x="493" y="570" type="curve" smooth="yes"/>
      <point x="493" y="692" type="line" smooth="yes"/>
      <point x="493" y="697"/>
      <point x="490" y="700"/>
    </contour>
    <contour>
      <point x="196" y="12" type="line"/>
      <point x="84" y="12" type="line"/>
      <point x="84" y="258" type="line" smooth="yes"/>
      <point x="84" y="299"/>
      <point x="97" y="336"/>
      <point x="121" y="367" type="curve"/>
      <point x="126" y="362"/>
      <point x="130" y="358"/>
      <point x="135" y="355" type="curve"/>
      <point x="116" y="328"/>
      <point x="104" y="294"/>
      <point x="104" y="258" type="curve" smooth="yes"/>
      <point x="104" y="37" type="line" smooth="yes"/>
      <point x="104" y="33"/>
      <point x="106" y="31"/>
      <point x="110" y="31" type="curve" smooth="yes"/>
      <point x="172" y="31" type="line" smooth="yes"/>
      <point x="177" y="31"/>
      <point x="179" y="33"/>
      <point x="179" y="37" type="curve" smooth="yes"/>
      <point x="179" y="258" type="line" smooth="yes"/>
      <point x="179" y="283"/>
      <point x="189" y="305"/>
      <point x="204" y="321" type="curve"/>
      <point x="213" y="318"/>
      <point x="221" y="317"/>
      <point x="229" y="316" type="curve"/>
      <point x="210" y="304"/>
      <point x="196" y="283"/>
      <point x="196" y="258" type="curve" smooth="yes"/>
    </contour>
    <contour>
      <point x="405" y="408" type="line"/>
      <point x="405" y="357" type="line"/>
      <point x="253" y="357" type="line" smooth="yes"/>
      <point x="238" y="357"/>
      <point x="225" y="358"/>
      <point x="210" y="363" type="curve"/>
      <point x="224" y="371"/>
      <point x="240" y="377"/>
      <point x="257" y="377" type="curve" smooth="yes"/>
      <point x="382" y="377" type="line" smooth="yes"/>
      <point x="386" y="377"/>
      <point x="389" y="380"/>
      <point x="389" y="383" type="curve" smooth="yes"/>
      <point x="389" y="387"/>
      <point x="385" y="389"/>
      <point x="382" y="389" type="curve" smooth="yes"/>
      <point x="253" y="389" type="line" smooth="yes"/>
      <point x="238" y="389"/>
      <point x="224" y="392"/>
      <point x="209" y="397" type="curve"/>
      <point x="224" y="403"/>
      <point x="240" y="408"/>
      <point x="257" y="408" type="curve" smooth="yes"/>
    </contour>
    <contour>
      <point x="166" y="371" type="curve"/>
      <point x="171" y="368"/>
      <point x="179" y="363"/>
      <point x="185" y="361" type="curve"/>
      <point x="180" y="357"/>
      <point x="174" y="352"/>
      <point x="170" y="347" type="curve"/>
      <point x="165" y="349"/>
      <point x="157" y="354"/>
      <point x="153" y="357" type="curve"/>
      <point x="156" y="362"/>
      <point x="161" y="368"/>
    </contour>
    <contour>
      <point x="166" y="410" type="curve"/>
      <point x="170" y="405"/>
      <point x="177" y="400"/>
      <point x="182" y="397" type="curve"/>
      <point x="176" y="393"/>
      <point x="171" y="390"/>
      <point x="166" y="386" type="curve"/>
      <point x="160" y="390"/>
      <point x="154" y="394"/>
      <point x="149" y="399" type="curve"/>
      <point x="154" y="403"/>
      <point x="160" y="406"/>
    </contour>
    <contour>
      <point x="194" y="391" type="curve"/>
      <point x="202" y="387"/>
      <point x="212" y="383"/>
      <point x="221" y="381" type="curve"/>
      <point x="212" y="378"/>
      <point x="202" y="373"/>
      <point x="195" y="369" type="curve"/>
      <point x="190" y="371"/>
      <point x="181" y="375"/>
      <point x="176" y="379" type="curve"/>
      <point x="181" y="382"/>
      <point x="188" y="388"/>
    </contour>
    <contour>
      <point x="161" y="337" type="curve"/>
      <point x="145" y="316"/>
      <point x="135" y="288"/>
      <point x="135" y="258" type="curve" smooth="yes"/>
      <point x="135" y="66" type="line" smooth="yes"/>
      <point x="135" y="63"/>
      <point x="137" y="60"/>
      <point x="141" y="60" type="curve" smooth="yes"/>
      <point x="145" y="60"/>
      <point x="147" y="63"/>
      <point x="147" y="66" type="curve" smooth="yes"/>
      <point x="147" y="258" type="line" smooth="yes"/>
      <point x="147" y="285"/>
      <point x="156" y="311"/>
      <point x="172" y="332" type="curve"/>
      <point x="178" y="328"/>
      <point x="184" y="326"/>
      <point x="191" y="324" type="curve"/>
      <point x="177" y="306"/>
      <point x="167" y="283"/>
      <point x="167" y="258" type="curve" smooth="yes"/>
      <point x="167" y="43" type="line"/>
      <point x="116" y="43" type="line"/>
      <point x="116" y="258" type="line" smooth="yes"/>
      <point x="116" y="292"/>
      <point x="127" y="322"/>
      <point x="145" y="347" type="curve"/>
      <point x="150" y="343"/>
      <point x="156" y="340"/>
    </contour>
    <contour>
      <point x="181" y="342" type="curve"/>
      <point x="185" y="346"/>
      <point x="192" y="352"/>
      <point x="198" y="356" type="curve"/>
      <point x="205" y="353"/>
      <point x="215" y="349"/>
      <point x="224" y="347" type="curve"/>
      <point x="215" y="345"/>
      <point x="207" y="338"/>
      <point x="202" y="334" type="curve"/>
      <point x="194" y="336"/>
      <point x="188" y="338"/>
    </contour>
    <contour>
      <point x="195" y="404" type="curve"/>
      <point x="189" y="406"/>
      <point x="180" y="411"/>
      <point x="176" y="416" type="curve"/>
      <point x="181" y="420"/>
      <point x="190" y="424"/>
      <point x="196" y="426" type="curve"/>
      <point x="204" y="421"/>
      <point x="212" y="416"/>
      <point x="220" y="413" type="curve"/>
      <point x="212" y="412"/>
      <point x="203" y="408"/>
    </contour>
    <contour>
      <point x="168" y="425" type="curve"/>
      <point x="147" y="446"/>
      <point x="134" y="475"/>
      <point x="134" y="507" type="curve" smooth="yes"/>
      <point x="134" y="573"/>
      <point x="188" y="625"/>
      <point x="253" y="625" type="curve" smooth="yes"/>
      <point x="426" y="625" type="line" smooth="yes"/>
      <point x="429" y="625"/>
      <point x="432" y="627"/>
      <point x="432" y="631" type="curve" smooth="yes"/>
      <point x="432" y="634"/>
      <point x="430" y="637"/>
      <point x="426" y="637" type="curve" smooth="yes"/>
      <point x="253" y="637" type="line" smooth="yes"/>
      <point x="181" y="637"/>
      <point x="122" y="579"/>
      <point x="122" y="507" type="curve" smooth="yes"/>
      <point x="122" y="474"/>
      <point x="136" y="442"/>
      <point x="158" y="419" type="curve"/>
      <point x="152" y="415"/>
      <point x="146" y="411"/>
      <point x="142" y="407" type="curve"/>
      <point x="117" y="434"/>
      <point x="104" y="468"/>
      <point x="104" y="507" type="curve" smooth="yes"/>
      <point x="104" y="590"/>
      <point x="170" y="657"/>
      <point x="253" y="657" type="curve" smooth="yes"/>
      <point x="448" y="657" type="line"/>
      <point x="448" y="607" type="line"/>
      <point x="253" y="607" type="line" smooth="yes"/>
      <point x="198" y="607"/>
      <point x="154" y="563"/>
      <point x="154" y="507" type="curve" smooth="yes"/>
      <point x="154" y="478"/>
      <point x="167" y="453"/>
      <point x="185" y="434" type="curve"/>
      <point x="180" y="432"/>
      <point x="173" y="428"/>
    </contour>
    <contour>
      <point x="141" y="390" type="curve"/>
      <point x="144" y="386"/>
      <point x="151" y="381"/>
      <point x="156" y="378" type="curve"/>
      <point x="150" y="373"/>
      <point x="147" y="369"/>
      <point x="143" y="365" type="curve"/>
      <point x="138" y="368"/>
      <point x="134" y="371"/>
      <point x="128" y="377" type="curve"/>
      <point x="131" y="381"/>
      <point x="135" y="386"/>
    </contour>
    <contour>
      <point x="437" y="439" type="line"/>
      <point x="437" y="325" type="line"/>
      <point x="253" y="325" type="line" smooth="yes"/>
      <point x="240" y="325"/>
      <point x="224" y="327"/>
      <point x="215" y="330" type="curve"/>
      <point x="224" y="339"/>
      <point x="244" y="345"/>
      <point x="258" y="345" type="curve" smooth="yes"/>
      <point x="412" y="345" type="line" smooth="yes"/>
      <point x="414" y="345"/>
      <point x="417" y="347"/>
      <point x="417" y="350" type="curve" smooth="yes"/>
      <point x="417" y="414" type="line" smooth="yes"/>
      <point x="417" y="417"/>
      <point x="414" y="420"/>
      <point x="411" y="420" type="curve" smooth="yes"/>
      <point x="253" y="420" type="line" smooth="yes"/>
      <point x="238" y="420"/>
      <point x="224" y="423"/>
      <point x="210" y="431" type="curve"/>
      <point x="224" y="435"/>
      <point x="234" y="439"/>
      <point x="266" y="439" type="curve" smooth="yes"/>
    </contour>
    <contour>
      <point x="480" y="576" type="line"/>
      <point x="253" y="576" type="line" smooth="yes"/>
      <point x="215" y="576"/>
      <point x="184" y="544"/>
      <point x="184" y="507" type="curve" smooth="yes"/>
      <point x="184" y="480"/>
      <point x="201" y="457"/>
      <point x="222" y="446" type="curve"/>
      <point x="215" y="444"/>
      <point x="206" y="442"/>
      <point x="198" y="439" type="curve"/>
      <point x="179" y="455"/>
      <point x="166" y="480"/>
      <point x="166" y="507" type="curve" smooth="yes"/>
      <point x="166" y="555"/>
      <point x="205" y="595"/>
      <point x="253" y="595" type="curve" smooth="yes"/>
      <point x="456" y="595" type="line" smooth="yes"/>
      <point x="458" y="595"/>
      <point x="461" y="597"/>
      <point x="461" y="600" type="curve" smooth="yes"/>
      <point x="461" y="663" type="line" smooth="yes"/>
      <point x="461" y="667"/>
      <point x="458" y="669"/>
      <point x="456" y="669" type="curve" smooth="yes"/>
      <point x="253" y="669" type="line" smooth="yes"/>
      <point x="165" y="669"/>
      <point x="92" y="597"/>
      <point x="92" y="507" type="curve" smooth="yes"/>
      <point x="92" y="466"/>
      <point x="106" y="427"/>
      <point x="133" y="398" type="curve"/>
      <point x="127" y="394"/>
      <point x="124" y="390"/>
      <point x="119" y="384" type="curve"/>
      <point x="91" y="417"/>
      <point x="72" y="459"/>
      <point x="72" y="507" type="curve" smooth="yes"/>
      <point x="72" y="608"/>
      <point x="154" y="688"/>
      <point x="253" y="688" type="curve" smooth="yes"/>
      <point x="480" y="688" type="line"/>
    </contour>
  </outline>
</glyph>
<glyph name="H" format="1">
  <advance width="736"/>
  <unicode hex="0048"/>
  <outline>
    <contour>
      <point x="143" y="0" type="line"/>
      <point x="174" y="0" type="line"/>
      <point x="174" y="304" type="line"/>
      <point x="206" y="304" type="line"/>
      <point x="206" y="0" type="line"/>
      <point x="237" y="0" type="line"/>
      <point x="237" y="304" type="line"/>
      <point x="269" y="304" type="line"/>
      <point x="269" y="0" type="line"/>
      <point x="300" y="0" type="line"/>
      <point x="300" y="304" type="line"/>
      <point x="436" y="304" type="line"/>
      <point x="436" y="0" type="line"/>
      <point x="467" y="0" type="line"/>
      <point x="467" y="304" type="line"/>
      <point x="499" y="304" type="line"/>
      <point x="499" y="0" type="line"/>
      <point x="530" y="0" type="line"/>
      <point x="530" y="304" type="line"/>
      <point x="562" y="304" type="line"/>
      <point x="562" y="0" type="line"/>
      <point x="593" y="0" type="line"/>
      <point x="593" y="304" type="line"/>
      <point x="625" y="304" type="line"/>
      <point x="625" y="0" type="line"/>
      <point x="656" y="0" type="line"/>
      <point x="656" y="700" type="line"/>
      <point x="625" y="700" type="line"/>
      <point x="625" y="396" type="line"/>
      <point x="593" y="396" type="line"/>
      <point x="593" y="700" type="line"/>
      <point x="562" y="700" type="line"/>
      <point x="562" y="396" type="line"/>
      <point x="530" y="396" type="line"/>
      <point x="530" y="700" type="line"/>
      <point x="499" y="700" type="line"/>
      <point x="499" y="396" type="line"/>
      <point x="467" y="396" type="line"/>
      <point x="467" y="700" type="line"/>
      <point x="436" y="700" type="line"/>
      <point x="436" y="396" type="line"/>
      <point x="300" y="396" type="line"/>
      <point x="300" y="700" type="line"/>
      <point x="269" y="700" type="line"/>
      <point x="269" y="396" type="line"/>
      <point x="237" y="396" type="line"/>
      <point x="237" y="700" type="line"/>
      <point x="206" y="700" type="line"/>
      <point x="206" y="396" type="line"/>
      <point x="174" y="396" type="line"/>
      <point x="174" y="700" type="line"/>
      <point x="143" y="700" type="line"/>
      <point x="143" y="396" type="line"/>
      <point x="111" y="396" type="line"/>
      <point x="111" y="700" type="line"/>
      <point x="80" y="700" type="line"/>
      <point x="80" y="0" type="line"/>
      <point x="111" y="0" type="line"/>
      <point x="111" y="304" type="line"/>
      <point x="143" y="304" type="line"/>
    </contour>
  </outline>
</glyph>
<glyph name="I" format="1">
  <advance width="404"/>
  <unicode hex="0049"/>
  <outline>
    <contour>
      <point x="404" y="29" type="line"/>
      <point x="216" y="29" type="line"/>
      <point x="216" y="674" type="line"/>
      <point x="404" y="674" type="line"/>
      <point x="404" y="700" type="line"/>
      <point x="0" y="700" type="line"/>
      <point x="0" y="674" type="line"/>
      <point x="188" y="674" type="line"/>
      <point x="188" y="29" type="line"/>
      <point x="0" y="29" type="line"/>
      <point x="0" y="0" type="line"/>
      <point x="404" y="0" type="line"/>
    </contour>
  </outline>
</glyph>
<glyph name="J" format="1">
  <advance width="571"/>
  <unicode hex="004A"/>
  <outline>
    <contour>
      <point x="501" y="560" type="line"/>
      <point x="501" y="626"/>
      <point x="511" y="676"/>
      <point x="631" y="700" type="curve"/>
      <point x="214" y="700" type="line"/>
      <point x="335" y="676"/>
      <point x="364" y="626"/>
      <point x="364" y="560" type="curve" smooth="yes"/>
      <point x="364" y="224" type="line" smooth="yes"/>
      <point x="364" y="119"/>
      <point x="307" y="37"/>
      <point x="211" y="37" type="curve" smooth="yes"/>
      <point x="91" y="37"/>
      <point x="45" y="138"/>
      <point x="37" y="204" type="curve"/>
      <point x="50" y="165"/>
      <point x="87" y="138"/>
      <point x="130" y="138" type="curve" smooth="yes"/>
      <point x="186" y="138"/>
      <point x="230" y="182"/>
      <point x="230" y="238" type="curve" smooth="yes"/>
      <point x="230" y="293"/>
      <point x="190" y="339"/>
      <point x="130" y="339" type="curve" smooth="yes"/>
      <point x="61" y="339"/>
      <point x="20" y="278"/>
      <point x="20" y="219" type="curve" smooth="yes"/>
      <point x="20" y="103"/>
      <point x="89" y="-10"/>
      <point x="266" y="-10" type="curve" smooth="yes"/>
      <point x="359" y="-10"/>
      <point x="501" y="59"/>
      <point x="501" y="239" type="curve" smooth="yes"/>
    </contour>
  </outline>
</glyph>
<glyph name="M" format="1">
  <advance width="740"/>
  <unicode hex="004D"/>
  <outline>
    <contour>
      <point x="30" y="0" type="line"/>
      <point x="710" y="0" type="line"/>
      <point x="591" y="729" type="line"/>
      <point x="480" y="52" type="line"/>
      <point x="370" y="729" type="line"/>
      <point x="259" y="52" type="line"/>
      <point x="149" y="729" type="line"/>
    </contour>
  </outline>
</glyph>
<glyph name="N" format="1">
  <advance width="571"/>
  <unicode hex="004E"/>
  <outline>
    <contour>
      <point x="464" y="0" type="line"/>
      <point x="496" y="0" type="line"/>
      <point x="496" y="483" type="line" smooth="yes"/>
      <point x="496" y="618"/>
      <point x="402" y="713"/>
      <point x="286" y="713" type="curve" smooth="yes"/>
      <point x="171" y="713"/>
      <point x="75" y="618"/>
      <point x="75" y="483" type="curve" smooth="yes"/>
      <point x="75" y="0" type="line"/>
      <point x="107" y="0" type="line"/>
      <point x="107" y="483" type="line" smooth="yes"/>
      <point x="107" y="604"/>
      <point x="194" y="683"/>
      <point x="286" y="683" type="curve" smooth="yes"/>
      <point x="379" y="683"/>
      <point x="464" y="604"/>
      <point x="464" y="482" type="curve" smooth="yes"/>
    </contour>
    <contour>
      <point x="404" y="0" type="line"/>
      <point x="436" y="0" type="line"/>
      <point x="436" y="483" type="line" smooth="yes"/>
      <point x="436" y="587"/>
      <point x="371" y="653"/>
      <point x="286" y="653" type="curve" smooth="yes"/>
      <point x="202" y="653"/>
      <point x="135" y="587"/>
      <point x="135" y="483" type="curve" smooth="yes"/>
      <point x="135" y="0" type="line"/>
      <point x="167" y="0" type="line"/>
      <point x="167" y="483" type="line"/>
      <point x="167" y="578"/>
      <point x="223" y="623"/>
      <point x="286" y="623" type="curve" smooth="yes"/>
      <point x="350" y="623"/>
      <point x="404" y="576"/>
      <point x="404" y="482" type="curve" smooth="yes"/>
    </contour>
    <contour>
      <point x="343" y="0" type="line"/>
      <point x="374" y="0" type="line"/>
      <point x="374" y="483" type="line" smooth="yes"/>
      <point x="374" y="550"/>
      <point x="339" y="593"/>
      <point x="286" y="593" type="curve" smooth="yes"/>
      <point x="235" y="593"/>
      <point x="197" y="551"/>
      <point x="197" y="483" type="curve"/>
      <point x="197" y="0" type="line"/>
      <point x="228" y="0" type="line"/>
      <point x="228" y="483" type="line" smooth="yes"/>
      <point x="228" y="537"/>
      <point x="253" y="563"/>
      <point x="286" y="563" type="curve" smooth="yes"/>
      <point x="318" y="563"/>
      <point x="343" y="538"/>
      <point x="343" y="482" type="curve" smooth="yes"/>
    </contour>
  </outline>
</glyph>
<glyph name="Q" format="1">
  <advance width="824"/>
  <unicode hex="0051"/>
  <outline>
    <contour>
      <point x="50" y="347" type="curve" smooth="yes"/>
      <point x="50" y="143"/>
      <point x="207" y="-25"/>
      <point x="412" y="-25" type="curve" smooth="yes"/>
      <point x="463" y="-25"/>
      <point x="510" y="-15"/>
      <point x="553" y="4" type="curve"/>
      <point x="579" y="-223" type="line"/>
      <point x="746" y="-128" type="line"/>
      <point x="566" y="9" type="line"/>
      <point x="691" y="68"/>
      <point x="774" y="198"/>
      <point x="774" y="347" type="curve" smooth="yes"/>
      <point x="774" y="551"/>
      <point x="617" y="719"/>
      <point x="412" y="719" type="curve" smooth="yes"/>
      <point x="207" y="719"/>
      <point x="50" y="551"/>
    </contour>
    <contour>
      <point x="162" y="347" type="curve" smooth="yes"/>
      <point x="162" y="490"/>
      <point x="268" y="607"/>
      <point x="412" y="607" type="curve" smooth="yes"/>
      <point x="555" y="607"/>
      <point x="662" y="490"/>
      <point x="662" y="347" type="curve" smooth="yes"/>
      <point x="662" y="203"/>
      <point x="555" y="87"/>
      <point x="412" y="87" type="curve" smooth="yes"/>
      <point x="268" y="87"/>
      <point x="162" y="203"/>
    </contour>
  </outline>
</glyph>
<glyph name="R" format="1">
  <advance width="369"/>
  <unicode hex="0052"/>
  <outline>
    <contour>
      <point x="80" y="0" type="line"/>
      <point x="364" y="0" type="line"/>
      <point x="89" y="433" type="line"/>
      <point x="347" y="433" type="line"/>
      <point x="347" y="700" type="line"/>
      <point x="80" y="700" type="line"/>
    </contour>
  </outline>
</glyph>
<glyph name="S" format="1">
  <advance width="630"/>
  <unicode hex="0053"/>
  <outline>
    <contour>
      <point x="60" y="313" type="line"/>
      <point x="309" y="276" type="line"/>
      <point x="90" y="175" type="line"/>
      <point x="90" y="-21" type="line"/>
      <point x="570" y="239" type="line"/>
      <point x="570" y="410" type="line"/>
      <point x="341" y="438" type="line"/>
      <point x="540" y="531" type="line"/>
      <point x="540" y="727" type="line"/>
      <point x="60" y="487" type="line"/>
    </contour>
  </outline>
</glyph>
<glyph name="T" format="1">
  <advance width="532"/>
  <unicode hex="0054"/>
  <outline>
    <contour>
      <point x="186" y="0" type="line"/>
      <point x="217" y="0" type="line"/>
      <point x="217" y="700" type="line"/>
      <point x="186" y="700" type="line"/>
    </contour>
    <contour>
      <point x="251" y="0" type="line"/>
      <point x="282" y="0" type="line"/>
      <point x="282" y="700" type="line"/>
      <point x="251" y="700" type="line"/>
    </contour>
    <contour>
      <point x="316" y="0" type="line"/>
      <point x="347" y="0" type="line"/>
      <point x="347" y="700" type="line"/>
      <point x="316" y="700" type="line"/>
    </contour>
    <contour>
      <point x="30" y="646" type="curve" smooth="yes"/>
      <point x="30" y="611"/>
      <point x="58" y="583"/>
      <point x="93" y="583" type="curve" smooth="yes"/>
      <point x="128" y="583"/>
      <point x="157" y="611"/>
      <point x="157" y="646" type="curve" smooth="yes"/>
      <point x="157" y="681"/>
      <point x="128" y="710"/>
      <point x="93" y="710" type="curve" smooth="yes"/>
      <point x="58" y="710"/>
      <point x="30" y="681"/>
    </contour>
    <contour>
      <point x="375" y="646" type="curve" smooth="yes"/>
      <point x="375" y="611"/>
      <point x="403" y="583"/>
      <point x="438" y="583" type="curve" smooth="yes"/>
      <point x="473" y="583"/>
      <point x="502" y="611"/>
      <point x="502" y="646" type="curve" smooth="yes"/>
      <point x="502" y="681"/>
      <point x="473" y="710"/>
      <point x="438" y="710" type="curve" smooth="yes"/>
      <point x="403" y="710"/>
      <point x="375" y="681"/>
    </contour>
  </outline>
</glyph>
<glyph name="V" format="1">
  <advance width="725"/>
  <unicode hex="0056"/>
  <outline>
    <contour>
      <point x="363" y="-32" type="line"/>
      <point x="363" y="-28" type="line"/>
      <point x="622" y="569" type="line" smooth="yes"/>
      <point x="652" y="639"/>
      <point x="675" y="679"/>
      <point x="775" y="700" type="curve"/>
      <point x="443" y="700" type="line"/>
      <point x="489" y="686" type="line" smooth="yes"/>
      <point x="547" y="667"/>
      <point x="552" y="625"/>
      <point x="536" y="584" type="curve" smooth="yes"/>
      <point x="367" y="165" type="line"/>
      <point x="197" y="584" type="line" smooth="yes"/>
      <point x="181" y="625"/>
      <point x="186" y="667"/>
      <point x="244" y="686" type="curve" smooth="yes"/>
      <point x="290" y="700" type="line"/>
      <point x="-50" y="700" type="line"/>
      <point x="47" y="679"/>
      <point x="74" y="637"/>
      <point x="103" y="569" type="curve" smooth="yes"/>
      <point x="361" y="-28" type="line"/>
      <point x="362" y="-32" type="line"/>
      <point x="362" y="-31" type="line"/>
    </contour>
  </outline>
</glyph>
<glyph name="Y" format="1">
  <advance width="574"/>
  <unicode hex="0059"/>
  <outline>
    <contour>
      <point x="451" y="700" type="line"/>
      <point x="254" y="334" type="line"/>
      <point x="127" y="508"/>
      <point x="220" y="700"/>
      <point x="220" y="700" type="curve"/>
      <point x="-9" y="700" type="line"/>
      <point x="240" y="312" type="line"/>
      <point x="62" y="0" type="line"/>
      <point x="219" y="0" type="line"/>
      <point x="607" y="700" type="line"/>
    </contour>
  </outline>
</glyph>
<glyph name="a" format="1">
  <advance width="668"/>
  <unicode hex="0061"/>
  <outline>
    <contour>
      <point x="334" y="723" type="line"/>
      <point x="-10" y="0" type="line"/>
      <point x="678" y="0" type="line"/>
    </contour>
    <contour>
      <point x="334" y="354" type="line"/>
      <point x="413" y="172" type="line"/>
      <point x="251" y="172" type="line"/>
    </contour>
  </outline>
</glyph>
<glyph name="c" format="1">
  <advance width="718"/>
  <unicode hex="0063"/>
  <outline>
    <contour>
      <point x="475" y="32" type="curve" smooth="yes"/>
      <point x="303" y="32"/>
      <point x="187" y="167"/>
      <point x="187" y="352" type="curve" smooth="yes"/>
      <point x="187" y="535"/>
      <point x="295" y="672"/>
      <point x="475" y="672" type="curve" smooth="yes"/>
      <point x="559" y="672"/>
      <point x="615" y="641"/>
      <point x="654" y="610" type="curve" smooth="yes"/>
      <point x="676" y="592"/>
      <point x="694" y="571"/>
      <point x="708" y="548" type="curve"/>
      <point x="695" y="579"/>
      <point x="675" y="608"/>
      <point x="649" y="633" type="curve" smooth="yes"/>
      <point x="604" y="676"/>
      <point x="533" y="719"/>
      <point x="417" y="719" type="curve" smooth="yes"/>
      <point x="214" y="719"/>
      <point x="50" y="555"/>
      <point x="50" y="352" type="curve" smooth="yes"/>
      <point x="50" y="149"/>
      <point x="214" y="-15"/>
      <point x="417" y="-15" type="curve" smooth="yes"/>
      <point x="522" y="-15"/>
      <point x="593" y="29"/>
      <point x="641" y="74" type="curve" smooth="yes"/>
      <point x="667" y="99"/>
      <point x="689" y="129"/>
      <point x="707" y="161" type="curve"/>
      <point x="692" y="137"/>
      <point x="674" y="115"/>
      <point x="653" y="97" type="curve" smooth="yes"/>
      <point x="614" y="64"/>
      <point x="558" y="32"/>
    </contour>
  </outline>
</glyph>
<glyph name="d" format="1">
  <advance width="674"/>
  <unicode hex="0064"/>
  <outline>
    <contour>
      <point x="80" y="0" type="line"/>
      <point x="419" y="0" type="line"/>
      <point x="419" y="104" type="line"/>
      <point x="525" y="104" type="line"/>
      <point x="525" y="210" type="line"/>
      <point x="624" y="210" type="line"/>
      <point x="624" y="507" type="line"/>
      <point x="525" y="507" type="line"/>
      <point x="525" y="603" type="line"/>
      <point x="419" y="603" type="line"/>
      <point x="419" y="701" type="line"/>
      <point x="80" y="701" type="line"/>
    </contour>
  </outline>
</glyph>
<glyph name="g" format="1">
  <advance width="734"/>
  <unicode hex="0067"/>
  <outline>
    <contour>
      <point x="378" y="330" type="line"/>
      <point x="576" y="330" type="line"/>
      <point x="565" y="239"/>
      <point x="497" y="166"/>
      <point x="412" y="166" type="curve" smooth="yes"/>
      <point x="304" y="166"/>
      <point x="232" y="252"/>
      <point x="232" y="353" type="curve" smooth="yes"/>
      <point x="232" y="453"/>
      <point x="303" y="540"/>
      <point x="404" y="540" type="curve" smooth="yes"/>
      <point x="456" y="540"/>
      <point x="501" y="519"/>
      <point x="533" y="484" type="curve"/>
      <point x="665" y="612" type="line"/>
      <point x="601" y="680"/>
      <point x="507" y="717"/>
      <point x="404" y="717" type="curve" smooth="yes"/>
      <point x="203" y="717"/>
      <point x="50" y="554"/>
      <point x="50" y="353" type="curve" smooth="yes"/>
      <point x="50" y="152"/>
      <point x="203" y="-11"/>
      <point x="404" y="-11" type="curve" smooth="yes"/>
      <point x="605" y="-11"/>
      <point x="758" y="152"/>
      <point x="758" y="353" type="curve"/>
      <point x="378" y="353" type="line"/>
    </contour>
  </outline>
</glyph>
<glyph name="k" format="1">
  <advance width="552"/>
  <unicode hex="006B"/>
  <outline>
    <contour>
      <point x="80" y="660" type="curve"/>
      <point x="80" y="44" type="line" smooth="yes"/>
      <point x="80" y="-29"/>
      <point x="179" y="-29"/>
      <point x="179" y="43" type="curve" smooth="yes"/>
      <point x="179" y="333" type="line"/>
      <point x="471" y="10" type="line" smooth="yes"/>
      <point x="523" y="-47"/>
      <point x="595" y="22"/>
      <point x="544" y="78" type="curve" smooth="yes"/>
      <point x="277" y="368" type="line"/>
      <point x="535" y="625" type="line" smooth="yes"/>
      <point x="580" y="670"/>
      <point x="515" y="748"/>
      <point x="462" y="693" type="curve" smooth="yes"/>
      <point x="179" y="404" type="line"/>
      <point x="179" y="660" type="line" smooth="yes"/>
      <point x="179" y="734"/>
      <point x="80" y="732"/>
    </contour>
  </outline>
</glyph>
<glyph name="l" format="1">
  <advance width="733"/>
  <unicode hex="006C"/>
  <outline>
    <contour>
      <point x="80" y="0" type="line"/>
      <point x="723" y="0" type="line"/>
      <point x="723" y="273" type="line"/>
      <point x="356" y="273" type="line"/>
      <point x="356" y="701" type="line"/>
      <point x="80" y="701" type="line"/>
    </contour>
    <contour>
      <point x="180" y="606" type="line"/>
      <point x="256" y="606" type="line"/>
      <point x="256" y="178" type="line"/>
      <point x="623" y="178" type="line"/>
      <point x="623" y="95" type="line"/>
      <point x="180" y="95" type="line"/>
    </contour>
  </outline>
</glyph>
<glyph name="m" format="1">
  <advance width="740"/>
  <unicode hex="006D"/>
  <outline>
    <contour>
      <point x="30" y="0" type="line"/>
      <point x="710" y="0" type="line"/>
      <point x="591" y="729" type="line"/>
      <point x="480" y="52" type="line"/>
      <point x="370" y="729" type="line"/>
      <point x="259" y="52" type="line"/>
      <point x="149" y="729" type="line"/>
    </contour>
  </outline>
</glyph>
<glyph name="o" format="1">
  <advance width="735"/>
  <unicode hex="006F"/>
  <outline>
    <contour>
      <point x="367" y="-50" type="line"/>
      <point x="730" y="342" type="line"/>
      <point x="368" y="735" type="line"/>
      <point x="5" y="342" type="line"/>
    </contour>
    <contour>
      <point x="368" y="714" type="curve"/>
      <point x="434" y="642"/>
      <point x="475" y="465"/>
      <point x="475" y="343" type="curve" smooth="yes"/>
      <point x="475" y="215"/>
      <point x="434" y="49"/>
      <point x="368" y="-22" type="curve"/>
      <point x="301" y="50"/>
      <point x="260" y="216"/>
      <point x="260" y="343" type="curve" smooth="yes"/>
      <point x="260" y="468"/>
      <point x="301" y="642"/>
    </contour>
  </outline>
</glyph>
<glyph name="p" format="1">
  <advance width="484"/>
  <unicode hex="0070"/>
  <outline>
    <contour>
      <point x="159" y="635" type="line"/>
      <point x="159" y="635"/>
      <point x="206" y="635"/>
      <point x="242" y="635" type="curve" smooth="yes"/>
      <point x="354" y="635"/>
      <point x="426" y="572"/>
      <point x="426" y="486" type="curve" smooth="yes"/>
      <point x="426" y="384"/>
      <point x="353" y="311"/>
      <point x="266" y="311" type="curve" smooth="yes"/>
      <point x="218" y="311"/>
      <point x="192" y="325"/>
      <point x="192" y="325" type="curve"/>
      <point x="187" y="321" type="line"/>
      <point x="187" y="321"/>
      <point x="222" y="294"/>
      <point x="278" y="294" type="curve" smooth="yes"/>
      <point x="363" y="294"/>
      <point x="477" y="361"/>
      <point x="477" y="500" type="curve" smooth="yes"/>
      <point x="477" y="604"/>
      <point x="396" y="700"/>
      <point x="232" y="700" type="curve"/>
      <point x="80" y="700" type="line"/>
      <point x="80" y="0" type="line"/>
      <point x="159" y="0" type="line"/>
    </contour>
  </outline>
</glyph>
<glyph name="r" format="1">
  <advance width="369"/>
  <unicode hex="0072"/>
  <outline>
    <contour>
      <point x="80" y="0" type="line"/>
      <point x="364" y="0" type="line"/>
      <point x="89" y="433" type="line"/>
      <point x="347" y="433" type="line"/>
      <point x="347" y="700" type="line"/>
      <point x="80" y="700" type="line"/>
    </contour>
  </outline>
</glyph>
<glyph name="u" format="1">
  <advance width="828"/>
  <unicode hex="0075"/>
  <outline>
    <contour>
      <point x="669" y="348" type="line"/>
      <point x="669" y="181"/>
      <point x="562" y="77"/>
      <point x="414" y="77" type="curve" smooth="yes"/>
      <point x="267" y="77"/>
      <point x="158" y="181"/>
      <point x="158" y="348" type="curve" smooth="yes"/>
      <point x="158" y="700" type="line"/>
      <point x="60" y="700" type="line"/>
      <point x="60" y="346" type="line" smooth="yes"/>
      <point x="60" y="126"/>
      <point x="213" y="-16"/>
      <point x="414" y="-16" type="curve" smooth="yes"/>
      <point x="615" y="-16"/>
      <point x="768" y="128"/>
      <point x="768" y="348" type="curve" smooth="yes"/>
      <point x="768" y="700" type="line"/>
      <point x="669" y="700" type="line"/>
    </contour>
  </outline>
</glyph>
<glyph name="w" format="1">
  <advance width="613"/>
  <unicode hex="0077"/>
  <outline>
    <contour>
      <point x="160" y="-29" type="line"/>
      <point x="307" y="669" type="line"/>
      <point x="450" y="-29" type="line"/>
      <point x="603" y="701" type="line"/>
      <point x="10" y="701" type="line"/>
    </contour>
  </outline>
</glyph>
<glyph name="x" format="1">
  <advance width="576"/>
  <unicode hex="0078"/>
  <outline>
    <contour>
      <point x="107" y="9" type="curve" smooth="yes"/>
      <point x="168" y="107"/>
      <point x="222" y="224"/>
      <point x="289" y="318" type="curve"/>
      <point x="353" y="224"/>
      <point x="408" y="112"/>
      <point x="469" y="16" type="curve" smooth="yes"/>
      <point x="509" y="-47"/>
      <point x="597" y="9"/>
      <point x="550" y="70" type="curve" smooth="yes"/>
      <point x="481" y="161"/>
      <point x="389" y="245"/>
      <point x="317" y="333" type="curve" smooth="yes"/>
      <point x="313" y="337"/>
      <point x="310" y="341"/>
      <point x="307" y="345" type="curve"/>
      <point x="310" y="349"/>
      <point x="313" y="354"/>
      <point x="317" y="358" type="curve" smooth="yes"/>
      <point x="389" y="449"/>
      <point x="478" y="534"/>
      <point x="550" y="624" type="curve"/>
      <point x="601" y="691"/>
      <point x="510" y="746"/>
      <point x="469" y="678" type="curve" smooth="yes"/>
      <point x="411" y="580"/>
      <point x="356" y="463"/>
      <point x="289" y="372" type="curve"/>
      <point x="220" y="465"/>
      <point x="166" y="584"/>
      <point x="107" y="685" type="curve" smooth="yes"/>
      <point x="67" y="752"/>
      <point x="-26" y="695"/>
      <point x="26" y="631" type="curve" smooth="yes"/>
      <point x="99" y="542"/>
      <point x="185" y="453"/>
      <point x="257" y="361" type="curve"/>
      <point x="261" y="354"/>
      <point x="265" y="350"/>
      <point x="269" y="345" type="curve"/>
      <point x="257" y="330" type="line" smooth="yes"/>
      <point x="185" y="239"/>
      <point x="99" y="152"/>
      <point x="26" y="63" type="curve" smooth="yes"/>
      <point x="-22" y="5"/>
      <point x="68" y="-54"/>
    </contour>
  </outline>
</glyph>
<glyph name="z" format="1">
  <advance width="516"/>
  <unicode hex="007A"/>
  <outline>
    <contour>
      <point x="15" y="0" type="line"/>
      <point x="526" y="0" type="line"/>
      <point x="501" y="31" type="line"/>
      <point x="69" y="31" type="line"/>
      <point x="403" y="625" type="line"/>
      <point x="100" y="625" type="line"/>
      <point x="126" y="595" type="line"/>
      <point x="351" y="595" type="line"/>
    </contour>
    <contour>
      <point x="50" y="700" type="line"/>
      <point x="76" y="670" type="line"/>
      <point x="480" y="670" type="line"/>
      <point x="143" y="75" type="line"/>
      <point x="476" y="75" type="line"/>
      <point x="451" y="106" type="line"/>
      <point x="198" y="106" type="line"/>
      <point x="531" y="700" type="line"/>
    </contour>
  </outline>
</glyph>
<glyph name="bar" format="1">
  <advance width="218"/>
  <unicode hex="007C"/>
  <outline>
    <contour>
      <point x="80" y="461" type="curve"/>
      <point x="80" y="461"/>
      <point x="94" y="605"/>
      <point x="138" y="797" type="curve"/>
      <point x="138" y="797"/>
      <point x="122" y="626"/>
    </contour>
    <contour>
      <point x="80" y="346" type="curve"/>
      <point x="80" y="346"/>
      <point x="94" y="489"/>
      <point x="138" y="682" type="curve"/>
      <point x="138" y="682"/>
      <point x="122" y="511"/>
    </contour>
    <contour>
      <point x="80" y="230" type="curve"/>
      <point x="80" y="230"/>
      <point x="94" y="374"/>
      <point x="138" y="566" type="curve"/>
      <point x="138" y="566"/>
      <point x="122" y="395"/>
    </contour>
    <contour>
      <point x="80" y="115" type="curve"/>
      <point x="80" y="115"/>
      <point x="94" y="258"/>
      <point x="138" y="451" type="curve"/>
      <point x="138" y="451"/>
      <point x="122" y="280"/>
    </contour>
    <contour>
      <point x="80" y="0" type="curve"/>
      <point x="80" y="0"/>
      <point x="94" y="143"/>
      <point x="138" y="335" type="curve"/>
      <point x="138" y="335"/>
      <point x="122" y="165"/>
    </contour>
    <contour>
      <point x="80" y="-116" type="curve"/>
      <point x="80" y="-116"/>
      <point x="94" y="28"/>
      <point x="138" y="220" type="curve"/>
      <point x="138" y="220"/>
      <point x="122" y="49"/>
    </contour>
  </outline>
</glyph>
<glyph name="AE" format="1">
  <advance width="761"/>
  <unicode hex="00C6"/>
  <outline>
    <contour>
      <point x="446" y="55" type="line"/>
      <point x="446" y="325" type="line"/>
      <point x="687" y="325" type="line"/>
      <point x="687" y="380" type="line"/>
      <point x="446" y="380" type="line"/>
      <point x="446" y="645" type="line"/>
      <point x="725" y="645" type="line"/>
      <point x="725" y="700" type="line"/>
      <point x="353" y="700" type="line"/>
      <point x="-20" y="45" type="line"/>
      <point x="-20" y="0" type="line"/>
      <point x="751" y="0" type="line"/>
      <point x="751" y="55" type="line"/>
    </contour>
    <contour>
      <point x="386" y="645" type="line"/>
      <point x="390" y="645" type="line"/>
      <point x="390" y="55" type="line"/>
      <point x="49" y="55" type="line"/>
    </contour>
  </outline>
</glyph>
<glyph name="OE" format="1">
  <advance width="991"/>
  <unicode hex="0152"/>
  <outline>
    <contour>
      <point x="742" y="40" type="curve"/>
      <point x="740" y="85"/>
      <point x="733" y="181"/>
      <point x="733" y="334" type="curve"/>
      <point x="831" y="324"/>
      <point x="880" y="267"/>
      <point x="880" y="267" type="curve"/>
      <point x="880" y="450" type="line"/>
      <point x="880" y="450"/>
      <point x="810" y="392"/>
      <point x="733" y="382" type="curve"/>
      <point x="733" y="538"/>
      <point x="740" y="615"/>
      <point x="742" y="661" type="curve"/>
      <point x="880" y="645"/>
      <point x="958" y="537"/>
      <point x="958" y="537" type="curve"/>
      <point x="958" y="700" type="line"/>
      <point x="562" y="700" type="line"/>
      <point x="562" y="700"/>
      <point x="575" y="669"/>
      <point x="580" y="589" type="curve"/>
      <point x="539" y="667"/>
      <point x="459" y="718"/>
      <point x="359" y="718" type="curve" smooth="yes"/>
      <point x="153" y="718"/>
      <point x="50" y="558"/>
      <point x="50" y="360" type="curve" smooth="yes"/>
      <point x="50" y="163"/>
      <point x="160" y="-16"/>
      <point x="359" y="-16" type="curve" smooth="yes"/>
      <point x="459" y="-16"/>
      <point x="540" y="35"/>
      <point x="580" y="113" type="curve"/>
      <point x="578" y="59"/>
      <point x="562" y="0"/>
      <point x="562" y="0" type="curve"/>
      <point x="971" y="0" type="line"/>
      <point x="971" y="159" type="line"/>
      <point x="971" y="159"/>
      <point x="869" y="56"/>
    </contour>
    <contour>
      <point x="417" y="60" type="curve" smooth="yes"/>
      <point x="315" y="60"/>
      <point x="237" y="188"/>
      <point x="237" y="360" type="curve" smooth="yes"/>
      <point x="237" y="532"/>
      <point x="320" y="642"/>
      <point x="417" y="642" type="curve" smooth="yes"/>
      <point x="514" y="642"/>
      <point x="594" y="540"/>
      <point x="594" y="360" type="curve" smooth="yes"/>
      <point x="594" y="180"/>
      <point x="520" y="60"/>
    </contour>
  </outline>
</glyph>
<glyph name="endash" format="1">
  <advance width="780"/>
  <unicode hex="2013"/>
  <outline>
    <contour>
      <point x="69" y="299" type="line"/>
      <point x="713" y="299" type="line"/>
      <point x="713" y="412" type="line"/>
      <point x="69" y="412" type="line"/>
    </contour>
    <contour>
      <point x="89" y="392" type="line"/>
      <point x="693" y="392" type="line"/>
      <point x="693" y="319" type="line"/>
      <point x="89" y="319" type="line"/>
    </contour>
    <contour>
      <point x="113" y="344" type="line"/>
      <point x="669" y="344" type="line"/>
      <point x="669" y="367" type="line"/>
      <point x="113" y="367" type="line"/>
    </contour>
  </outline>
</glyph>
<glyph name="emdash" format="1">
  <advance width="1260"/>
  <unicode hex="2014"/>
  <outline>
    <contour>
      <point x="32" y="356" type="curve" smooth="yes"/>
      <point x="32" y="337"/>
      <point x="47" y="322"/>
      <point x="66" y="322" type="curve" smooth="yes"/>
      <point x="85" y="322"/>
      <point x="100" y="337"/>
      <point x="100" y="356" type="curve" smooth="yes"/>
      <point x="100" y="375"/>
      <point x="85" y="390"/>
      <point x="66" y="390" type="curve" smooth="yes"/>
      <point x="47" y="390"/>
      <point x="32" y="375"/>
    </contour>
    <contour>
      <point x="126" y="356" type="curve" smooth="yes"/>
      <point x="126" y="337"/>
      <point x="141" y="322"/>
      <point x="160" y="322" type="curve" smooth="yes"/>
      <point x="179" y="322"/>
      <point x="194" y="337"/>
      <point x="194" y="356" type="curve" smooth="yes"/>
      <point x="194" y="375"/>
      <point x="179" y="390"/>
      <point x="160" y="390" type="curve" smooth="yes"/>
      <point x="141" y="390"/>
      <point x="126" y="375"/>
    </contour>
    <contour>
      <point x="220" y="356" type="curve" smooth="yes"/>
      <point x="220" y="337"/>
      <point x="235" y="322"/>
      <point x="254" y="322" type="curve" smooth="yes"/>
      <point x="273" y="322"/>
      <point x="288" y="337"/>
      <point x="288" y="356" type="curve" smooth="yes"/>
      <point x="288" y="375"/>
      <point x="273" y="390"/>
      <point x="254" y="390" type="curve" smooth="yes"/>
      <point x="235" y="390"/>
      <point x="220" y="375"/>
    </contour>
    <contour>
      <point x="314" y="356" type="curve" smooth="yes"/>
      <point x="314" y="337"/>
      <point x="329" y="322"/>
      <point x="348" y="322" type="curve" smooth="yes"/>
      <point x="367" y="322"/>
      <point x="382" y="337"/>
      <point x="382" y="356" type="curve" smooth="yes"/>
      <point x="382" y="375"/>
      <point x="367" y="390"/>
      <point x="348" y="390" type="curve" smooth="yes"/>
      <point x="329" y="390"/>
      <point x="314" y="375"/>
    </contour>
    <contour>
      <point x="408" y="356" type="curve" smooth="yes"/>
      <point x="408" y="337"/>
      <point x="423" y="322"/>
      <point x="442" y="322" type="curve" smooth="yes"/>
      <point x="461" y="322"/>
      <point x="476" y="337"/>
      <point x="476" y="356" type="curve" smooth="yes"/>
      <point x="476" y="375"/>
      <point x="461" y="390"/>
      <point x="442" y="390" type="curve" smooth="yes"/>
      <point x="423" y="390"/>
      <point x="408" y="375"/>
    </contour>
    <contour>
      <point x="502" y="356" type="curve" smooth="yes"/>
      <point x="502" y="337"/>
      <point x="517" y="322"/>
      <point x="536" y="322" type="curve" smooth="yes"/>
      <point x="555" y="322"/>
      <point x="570" y="337"/>
      <point x="570" y="356" type="curve" smooth="yes"/>
      <point x="570" y="375"/>
      <point x="555" y="390"/>
      <point x="536" y="390" type="curve" smooth="yes"/>
      <point x="517" y="390"/>
      <point x="502" y="375"/>
    </contour>
    <contour>
      <point x="596" y="356" type="curve" smooth="yes"/>
      <point x="596" y="337"/>
      <point x="611" y="322"/>
      <point x="630" y="322" type="curve" smooth="yes"/>
      <point x="649" y="322"/>
      <point x="664" y="337"/>
      <point x="664" y="356" type="curve" smooth="yes"/>
      <point x="664" y="375"/>
      <point x="649" y="390"/>
      <point x="630" y="390" type="curve" smooth="yes"/>
      <point x="611" y="390"/>
      <point x="596" y="375"/>
    </contour>
    <contour>
      <point x="690" y="356" type="curve" smooth="yes"/>
      <point x="690" y="337"/>
      <point x="705" y="322"/>
      <point x="724" y="322" type="curve" smooth="yes"/>
      <point x="743" y="322"/>
      <point x="758" y="337"/>
      <point x="758" y="356" type="curve" smooth="yes"/>
      <point x="758" y="375"/>
      <point x="743" y="390"/>
      <point x="724" y="390" type="curve" smooth="yes"/>
      <point x="705" y="390"/>
      <point x="690" y="375"/>
    </contour>
    <contour>
      <point x="784" y="356" type="curve" smooth="yes"/>
      <point x="784" y="337"/>
      <point x="799" y="322"/>
      <point x="818" y="322" type="curve" smooth="yes"/>
      <point x="837" y="322"/>
      <point x="852" y="337"/>
      <point x="852" y="356" type="curve" smooth="yes"/>
      <point x="852" y="375"/>
      <point x="837" y="390"/>
      <point x="818" y="390" type="curve" smooth="yes"/>
      <point x="799" y="390"/>
      <point x="784" y="375"/>
    </contour>
    <contour>
      <point x="878" y="356" type="curve" smooth="yes"/>
      <point x="878" y="337"/>
      <point x="893" y="322"/>
      <point x="912" y="322" type="curve" smooth="yes"/>
      <point x="931" y="322"/>
      <point x="946" y="337"/>
      <point x="946" y="356" type="curve" smooth="yes"/>
      <point x="946" y="375"/>
      <point x="931" y="390"/>
      <point x="912" y="390" type="curve" smooth="yes"/>
      <point x="893" y="390"/>
      <point x="878" y="375"/>
    </contour>
    <contour>
      <point x="972" y="356" type="curve" smooth="yes"/>
      <point x="972" y="337"/>
      <point x="987" y="322"/>
      <point x="1006" y="322" type="curve" smooth="yes"/>
      <point x="1025" y="322"/>
      <point x="1040" y="337"/>
      <point x="1040" y="356" type="curve" smooth="yes"/>
      <point x="1040" y="375"/>
      <point x="1025" y="390"/>
      <point x="1006" y="390" type="curve" smooth="yes"/>
      <point x="987" y="390"/>
      <point x="972" y="375"/>
    </contour>
    <contour>
      <point x="1066" y="356" type="curve" smooth="yes"/>
      <point x="1066" y="337"/>
      <point x="1081" y="322"/>
      <point x="1100" y="322" type="curve" smooth="yes"/>
      <point x="1119" y="322"/>
      <point x="1134" y="337"/>
      <point x="1134" y="356" type="curve" smooth="yes"/>
      <point x="1134" y="375"/>
      <point x="1119" y="390"/>
      <point x="1100" y="390" type="curve" smooth="yes"/>
      <point x="1081" y="390"/>
      <point x="1066" y="375"/>
    </contour>
    <contour>
      <point x="1160" y="356" type="curve" smooth="yes"/>
      <point x="1160" y="337"/>
      <point x="1175" y="322"/>
      <point x="1194" y="322" type="curve" smooth="yes"/>
      <point x="1213" y="322"/>
      <point x="1228" y="337"/>
      <point x="1228" y="356" type="curve" smooth="yes"/>
      <point x="1228" y="375"/>
      <point x="1213" y="390"/>
      <point x="1194" y="390" type="curve" smooth="yes"/>
      <point x="1175" y="390"/>
      <point x="1160" y="375"/>
    </contour>
  </outline>
</glyph>
<glyph name="quoteleft" format="1">
  <advance width="381"/>
  <unicode hex="2018"/>
  <outline>
    <contour>
      <point x="266" y="715" type="line"/>
      <point x="147" y="715"/>
      <point x="50" y="603"/>
      <point x="50" y="463" type="curve" smooth="yes"/>
      <point x="50" y="345"/>
      <point x="132" y="280"/>
      <point x="208" y="280" type="curve" smooth="yes"/>
      <point x="300" y="280"/>
      <point x="351" y="353"/>
      <point x="351" y="412" type="curve" smooth="yes"/>
      <point x="351" y="496"/>
      <point x="294" y="538"/>
      <point x="223" y="538" type="curve" smooth="yes"/>
      <point x="175" y="538"/>
      <point x="134" y="503"/>
      <point x="126" y="480" type="curve"/>
      <point x="119" y="493"/>
      <point x="118" y="508"/>
      <point x="118" y="527" type="curve" smooth="yes"/>
      <point x="118" y="600"/>
      <point x="162" y="679"/>
      <point x="272" y="695" type="curve"/>
    </contour>
  </outline>
</glyph>
<glyph name="quoteright" format="1">
  <advance width="381"/>
  <unicode hex="2019"/>
  <outline>
    <contour>
      <point x="115" y="280" type="line"/>
      <point x="233" y="280"/>
      <point x="331" y="392"/>
      <point x="331" y="532" type="curve" smooth="yes"/>
      <point x="331" y="649"/>
      <point x="249" y="715"/>
      <point x="173" y="715" type="curve" smooth="yes"/>
      <point x="81" y="715"/>
      <point x="30" y="650"/>
      <point x="30" y="582" type="curve" smooth="yes"/>
      <point x="30" y="507"/>
      <point x="87" y="457"/>
      <point x="158" y="457" type="curve" smooth="yes"/>
      <point x="206" y="457"/>
      <point x="247" y="492"/>
      <point x="255" y="515" type="curve"/>
      <point x="262" y="502"/>
      <point x="263" y="487"/>
      <point x="263" y="468" type="curve" smooth="yes"/>
      <point x="263" y="395"/>
      <point x="219" y="316"/>
      <point x="109" y="300" type="curve"/>
    </contour>
  </outline>
</glyph>
<glyph name="bullet" format="1">
  <advance width="387"/>
  <unicode hex="2022"/>
  <outline>
    <contour>
      <point x="30" y="389" type="curve" smooth="yes"/>
      <point x="167" y="389"/>
      <point x="189" y="224"/>
      <point x="193" y="207" type="curve"/>
      <point x="193" y="224"/>
      <point x="222" y="389"/>
      <point x="357" y="389" type="curve" smooth="yes"/>
      <point x="222" y="389"/>
      <point x="193" y="555"/>
      <point x="193" y="575" type="curve"/>
      <point x="189" y="556"/>
      <point x="167" y="389"/>
    </contour>
  </outline>
</glyph>
<glyph name="A.ss2" format="1">
  <advance width="624"/>
  <unicode hex="E002"/>
  <outline>
    <contour>
      <point x="311" y="720" type="line"/>
      <point x="-30" y="0" type="line"/>
      <point x="141" y="0" type="line"/>
      <point x="177" y="85" type="line"/>
      <point x="446" y="85" type="line"/>
      <point x="483" y="0" type="line"/>
      <point x="654" y="0" type="line"/>
    </contour>
    <contour>
      <point x="318" y="563" type="line"/>
      <point x="318" y="673" type="line"/>
      <point x="623" y="34" type="line"/>
      <point x="537" y="98" type="line"/>
    </contour>
    <contour>
      <point x="304" y="674" type="line"/>
      <point x="304" y="563" type="line"/>
      <point x="87" y="98" type="line"/>
      <point x="1" y="36" type="line"/>
    </contour>
    <contour>
      <point x="142" y="154" type="line"/>
      <point x="482" y="154" type="line"/>
      <point x="447" y="99" type="line"/>
      <point x="175" y="99" type="line"/>
    </contour>
    <contour>
      <point x="304" y="532" type="line"/>
      <point x="304" y="393" type="line"/>
      <point x="226" y="221" type="line"/>
      <point x="139" y="173" type="line"/>
    </contour>
    <contour>
      <point x="318" y="532" type="line"/>
      <point x="485" y="173" type="line"/>
      <point x="397" y="221" type="line"/>
      <point x="319" y="393" type="line"/>
    </contour>
    <contour>
      <point x="311" y="378" type="line"/>
      <point x="380" y="227" type="line"/>
      <point x="243" y="227" type="line"/>
    </contour>
    <contour>
      <point x="471" y="167" type="line"/>
      <point x="153" y="167" type="line"/>
      <point x="238" y="213" type="line"/>
      <point x="385" y="213" type="line"/>
    </contour>
    <contour>
      <point x="628" y="14" type="line"/>
      <point x="495" y="14" type="line"/>
      <point x="532" y="84" type="line"/>
    </contour>
    <contour>
      <point x="129" y="14" type="line"/>
      <point x="-9" y="14" type="line"/>
      <point x="91" y="84" type="line"/>
    </contour>
    <contour>
      <point x="136" y="29" type="line"/>
      <point x="102" y="93" type="line"/>
      <point x="128" y="152" type="line"/>
      <point x="165" y="90" type="line"/>
    </contour>
    <contour>
      <point x="459" y="91" type="line"/>
      <point x="496" y="151" type="line"/>
      <point x="522" y="93" type="line"/>
      <point x="488" y="27" type="line"/>
    </contour>
  </outline>
</glyph>
<glyph name="A.ss3" format="1">
  <advance width="614"/>
  <unicode hex="E003"/>
  <outline>
    <contour>
      <point x="301" y="688" type="line"/>
      <point x="291" y="709"/>
      <point x="263" y="718"/>
      <point x="242" y="708" type="curve" smooth="yes"/>
      <point x="219" y="698"/>
      <point x="210" y="671"/>
      <point x="220" y="650" type="curve" smooth="yes"/>
      <point x="523" y="10" type="line" smooth="yes"/>
      <point x="531" y="-6"/>
      <point x="548" y="-16"/>
      <point x="564" y="-16" type="curve" smooth="yes"/>
      <point x="596" y="-16"/>
      <point x="619" y="17"/>
      <point x="604" y="48" type="curve" smooth="yes"/>
    </contour>
    <contour>
      <point x="206" y="221" type="line"/>
      <point x="296" y="409" type="line" smooth="yes"/>
      <point x="307" y="432"/>
      <point x="300" y="460"/>
      <point x="277" y="471" type="curve" smooth="yes"/>
      <point x="252" y="483"/>
      <point x="226" y="470"/>
      <point x="215" y="447" type="curve" smooth="yes"/>
      <point x="108" y="221" type="line"/>
      <point x="35" y="221" type="line" smooth="yes"/>
      <point x="10" y="221"/>
      <point x="-10" y="199"/>
      <point x="-10" y="176" type="curve" smooth="yes"/>
      <point x="-10" y="150"/>
      <point x="10" y="132"/>
      <point x="35" y="132" type="curve" smooth="yes"/>
      <point x="66" y="132" type="line"/>
      <point x="23" y="40" type="line" smooth="yes"/>
      <point x="7" y="5"/>
      <point x="33" y="-23"/>
      <point x="63" y="-23" type="curve" smooth="yes"/>
      <point x="81" y="-23"/>
      <point x="97" y="-12"/>
      <point x="104" y="4" type="curve" smooth="yes"/>
      <point x="164" y="132" type="line"/>
      <point x="365" y="132" type="line" smooth="yes"/>
      <point x="391" y="132"/>
      <point x="410" y="151"/>
      <point x="410" y="177" type="curve" smooth="yes"/>
      <point x="410" y="200"/>
      <point x="391" y="221"/>
      <point x="365" y="221" type="curve" smooth="yes"/>
    </contour>
  </outline>
</glyph>
<glyph name="A.ss4" format="1">
  <advance width="628"/>
  <unicode hex="E004"/>
  <outline>
    <contour>
      <point x="314" y="723" type="line"/>
      <point x="-30" y="0" type="line"/>
      <point x="133" y="0" type="line"/>
      <point x="172" y="87" type="line"/>
      <point x="456" y="87" type="line"/>
      <point x="495" y="0" type="line"/>
      <point x="658" y="0" type="line"/>
    </contour>
    <contour>
      <point x="-1" y="21" type="line"/>
      <point x="310" y="679" type="line"/>
      <point x="310" y="567" type="line"/>
      <point x="86" y="89" type="line"/>
    </contour>
    <contour>
      <point x="314" y="401" type="line"/>
      <point x="395" y="220" type="line"/>
      <point x="232" y="220" type="line"/>
    </contour>
    <contour>
      <point x="132" y="159" type="line"/>
      <point x="218" y="203" type="line"/>
      <point x="421" y="203" type="line"/>
      <point x="317" y="436" type="line"/>
      <point x="317" y="551" type="line"/>
      <point x="500" y="159" type="line"/>
    </contour>
    <contour>
      <point x="469" y="99" type="line"/>
      <point x="504" y="152" type="line"/>
      <point x="535" y="86" type="line"/>
      <point x="506" y="19" type="line"/>
    </contour>
  </outline>
</glyph>
<glyph name="A.ss5" format="1">
  <advance width="620"/>
  <unicode hex="E005"/>
  <outline>
    <contour>
      <point x="176" y="677" type="curve"/>
      <point x="202" y="669"/>
      <point x="222" y="652"/>
      <point x="209" y="604" type="curve"/>
      <point x="52" y="83" type="line"/>
      <point x="44" y="59"/>
      <point x="33" y="30"/>
      <point x="-15" y="22" type="curve" smooth="yes"/>
      <point x="-34" y="19"/>
      <point x="-34" y="0"/>
      <point x="-15" y="0" type="curve" smooth="yes"/>
      <point x="169" y="0" type="line" smooth="yes"/>
      <point x="184" y="0"/>
      <point x="188" y="18"/>
      <point x="169" y="22" type="curve" smooth="yes"/>
      <point x="154" y="25"/>
      <point x="106" y="31"/>
      <point x="119" y="82" type="curve" smooth="yes"/>
      <point x="178" y="321" type="line"/>
      <point x="302" y="305"/>
      <point x="417" y="194"/>
      <point x="417" y="71" type="curve" smooth="yes"/>
      <point x="417" y="39"/>
      <point x="401" y="26"/>
      <point x="388" y="22" type="curve" smooth="yes"/>
      <point x="371" y="17"/>
      <point x="372" y="0"/>
      <point x="388" y="0" type="curve" smooth="yes"/>
      <point x="638" y="0" type="line" smooth="yes"/>
      <point x="653" y="0"/>
      <point x="653" y="19"/>
      <point x="638" y="22" type="curve" smooth="yes"/>
      <point x="605" y="29"/>
      <point x="592" y="47"/>
      <point x="585" y="68" type="curve"/>
      <point x="430" y="602" type="line"/>
      <point x="419" y="645"/>
      <point x="427" y="670"/>
      <point x="448" y="677" type="curve" smooth="yes"/>
      <point x="471" y="684"/>
      <point x="465" y="700"/>
      <point x="448" y="700" type="curve" smooth="yes"/>
      <point x="176" y="700" type="line" smooth="yes"/>
      <point x="157" y="700"/>
      <point x="156" y="682"/>
    </contour>
    <contour>
      <point x="260" y="652" type="line"/>
      <point x="366" y="292" type="line"/>
      <point x="291" y="340"/>
      <point x="212" y="345"/>
      <point x="184" y="348" type="curve"/>
    </contour>
  </outline>
</glyph>
<glyph name="B.ss1" format="1">
  <advance width="574"/>
  <unicode hex="E006"/>
  <outline>
    <contour>
      <point x="554" y="485" type="curve" smooth="yes"/>
      <point x="554" y="547"/>
      <point x="528" y="604"/>
      <point x="479" y="644" type="curve" smooth="yes"/>
      <point x="436" y="679"/>
      <point x="378" y="700"/>
      <point x="320" y="700" type="curve" smooth="yes"/>
      <point x="-120" y="700" type="line"/>
      <point x="-54" y="626" type="line"/>
      <point x="320" y="626" type="line" smooth="yes"/>
      <point x="368" y="626"/>
      <point x="419" y="610"/>
      <point x="450" y="572" type="curve" smooth="yes"/>
      <point x="467" y="551"/>
      <point x="481" y="525"/>
      <point x="480" y="489" type="curve"/>
      <point x="475" y="518"/>
      <point x="459" y="546"/>
      <point x="441" y="563" type="curve" smooth="yes"/>
      <point x="410" y="594"/>
      <point x="366" y="608"/>
      <point x="315" y="608" type="curve" smooth="yes"/>
      <point x="-38" y="608" type="line"/>
      <point x="28" y="534" type="line"/>
      <point x="101" y="534" type="line"/>
      <point x="101" y="94" type="line" smooth="yes"/>
      <point x="101" y="26"/>
      <point x="89" y="0"/>
      <point x="89" y="0" type="curve"/>
      <point x="285" y="0" type="line" smooth="yes"/>
      <point x="380" y="0"/>
      <point x="457" y="77"/>
      <point x="457" y="171" type="curve" smooth="yes"/>
      <point x="457" y="212"/>
      <point x="441" y="261"/>
      <point x="399" y="287" type="curve"/>
      <point x="424" y="294"/>
      <point x="554" y="349"/>
    </contour>
    <contour>
      <point x="174" y="73" type="line"/>
      <point x="174" y="267" type="line"/>
      <point x="285" y="267" type="line" smooth="yes"/>
      <point x="340" y="267"/>
      <point x="383" y="224"/>
      <point x="383" y="171" type="curve" smooth="yes"/>
      <point x="383" y="117"/>
      <point x="339" y="73"/>
      <point x="285" y="73" type="curve" smooth="yes"/>
    </contour>
    <contour>
      <point x="300" y="338" type="curve"/>
      <point x="174" y="338" type="line"/>
      <point x="174" y="534" type="line"/>
      <point x="300" y="534" type="line" smooth="yes"/>
      <point x="390" y="534"/>
      <point x="413" y="487"/>
      <point x="413" y="441" type="curve" smooth="yes"/>
      <point x="413" y="395"/>
      <point x="387" y="338"/>
    </contour>
  </outline>
</glyph>
<glyph name="B.ss2" format="1">
  <advance width="727"/>
  <unicode hex="E007"/>
  <outline>
    <contour>
      <point x="498" y="0" type="line"/>
      <point x="610" y="0"/>
      <point x="707" y="94"/>
      <point x="707" y="211" type="curve" smooth="yes"/>
      <point x="707" y="283"/>
      <point x="660" y="353"/>
      <point x="602" y="382" type="curve"/>
      <point x="628" y="405"/>
      <point x="651" y="457"/>
      <point x="651" y="500" type="curve" smooth="yes"/>
      <point x="651" y="612"/>
      <point x="565" y="700"/>
      <point x="438" y="700" type="curve" smooth="yes"/>
      <point x="80" y="700" type="line"/>
      <point x="80" y="0" type="line"/>
    </contour>
    <contour>
      <point x="581" y="210" type="curve" smooth="yes"/>
      <point x="581" y="162"/>
      <point x="545" y="122"/>
      <point x="488" y="122" type="curve" smooth="yes"/>
      <point x="209" y="122" type="line"/>
      <point x="209" y="298" type="line"/>
      <point x="488" y="298" type="line" smooth="yes"/>
      <point x="548" y="298"/>
      <point x="581" y="258"/>
    </contour>
    <contour>
      <point x="525" y="500" type="curve" smooth="yes"/>
      <point x="525" y="456"/>
      <point x="494" y="414"/>
      <point x="438" y="414" type="curve" smooth="yes"/>
      <point x="209" y="414" type="line"/>
      <point x="209" y="578" type="line"/>
      <point x="441" y="578" type="line" smooth="yes"/>
      <point x="496" y="578"/>
      <point x="525" y="543"/>
    </contour>
  </outline>
</glyph>
<glyph name="B.ss3" format="1">
  <advance width="543"/>
  <unicode hex="E008"/>
  <outline>
    <contour>
      <point x="224" y="0" type="line"/>
      <point x="321" y="16"/>
      <point x="553" y="97"/>
      <point x="553" y="297" type="curve" smooth="yes"/>
      <point x="553" y="377"/>
      <point x="485" y="427"/>
      <point x="368" y="414" type="curve" smooth="yes"/>
      <point x="324" y="409" type="line"/>
      <point x="407" y="454"/>
      <point x="492" y="542"/>
      <point x="492" y="609" type="curve" smooth="yes"/>
      <point x="492" y="668"/>
      <point x="437" y="700"/>
      <point x="346" y="700" type="curve" smooth="yes"/>
      <point x="70" y="700" type="line"/>
      <point x="75" y="683"/>
      <point x="80" y="659"/>
      <point x="84" y="628" type="curve" smooth="yes"/>
      <point x="91" y="576"/>
      <point x="99" y="492"/>
      <point x="99" y="359" type="curve" smooth="yes"/>
      <point x="99" y="243"/>
      <point x="91" y="154"/>
      <point x="84" y="93" type="curve" smooth="yes"/>
      <point x="80" y="57"/>
      <point x="75" y="26"/>
      <point x="70" y="0" type="curve"/>
    </contour>
    <contour>
      <point x="209" y="354" type="line"/>
      <point x="228" y="362"/>
      <point x="254" y="372"/>
      <point x="283" y="387" type="curve"/>
      <point x="379" y="387"/>
      <point x="423" y="315"/>
      <point x="423" y="256" type="curve" smooth="yes"/>
      <point x="423" y="91"/>
      <point x="270" y="44"/>
      <point x="225" y="36" type="curve"/>
      <point x="222" y="57"/>
      <point x="209" y="155"/>
      <point x="209" y="351" type="curve" smooth="yes"/>
    </contour>
    <contour>
      <point x="364" y="577" type="curve" smooth="yes"/>
      <point x="364" y="473"/>
      <point x="268" y="407"/>
      <point x="209" y="380" type="curve"/>
      <point x="209" y="468"/>
      <point x="213" y="543"/>
      <point x="216" y="596" type="curve" smooth="yes"/>
      <point x="218" y="627"/>
      <point x="220" y="656"/>
      <point x="222" y="681" type="curve"/>
      <point x="323" y="681"/>
      <point x="364" y="633"/>
    </contour>
  </outline>
</glyph>
<glyph name="B.ss4" format="1">
  <advance width="588"/>
  <unicode hex="E009"/>
  <outline>
    <contour>
      <point x="132" y="0" type="line"/>
      <point x="98" y="0"/>
      <point x="70" y="28"/>
      <point x="70" y="62" type="curve" smooth="yes"/>
      <point x="70" y="504" type="line" smooth="yes"/>
      <point x="70" y="617"/>
      <point x="162" y="709"/>
      <point x="275" y="709" type="curve" smooth="yes"/>
      <point x="388" y="709"/>
      <point x="480" y="617"/>
      <point x="480" y="504" type="curve" smooth="yes"/>
      <point x="480" y="464"/>
      <point x="469" y="425"/>
      <point x="449" y="392" type="curve"/>
      <point x="510" y="353"/>
      <point x="548" y="287"/>
      <point x="548" y="214" type="curve" smooth="yes"/>
      <point x="548" y="95"/>
      <point x="448" y="0"/>
      <point x="334" y="0" type="curve" smooth="yes"/>
    </contour>
    <contour>
      <point x="172" y="504" type="line"/>
      <point x="172" y="560"/>
      <point x="218" y="607"/>
      <point x="275" y="607" type="curve" smooth="yes"/>
      <point x="332" y="607"/>
      <point x="377" y="560"/>
      <point x="377" y="504" type="curve" smooth="yes"/>
      <point x="377" y="453"/>
      <point x="334" y="399"/>
      <point x="282" y="399" type="curve" smooth="yes"/>
      <point x="269" y="399" type="line" smooth="yes"/>
      <point x="248" y="399"/>
      <point x="230" y="382"/>
      <point x="230" y="360" type="curve" smooth="yes"/>
      <point x="230" y="338"/>
      <point x="248" y="321"/>
      <point x="269" y="321" type="curve" smooth="yes"/>
      <point x="334" y="321" type="line" smooth="yes"/>
      <point x="394" y="321"/>
      <point x="447" y="274"/>
      <point x="447" y="214" type="curve" smooth="yes"/>
      <point x="447" y="153"/>
      <point x="395" y="102"/>
      <point x="334" y="102" type="curve" smooth="yes"/>
      <point x="179" y="102" type="line" smooth="yes"/>
      <point x="173" y="102"/>
      <point x="172" y="105"/>
      <point x="172" y="110" type="curve" smooth="yes"/>
    </contour>
    <contour>
      <point x="334" y="126" type="line"/>
      <point x="382" y="126"/>
      <point x="422" y="166"/>
      <point x="422" y="214" type="curve" smooth="yes"/>
      <point x="422" y="261"/>
      <point x="384" y="296"/>
      <point x="334" y="296" type="curve" smooth="yes"/>
      <point x="269" y="296" type="line" smooth="yes"/>
      <point x="234" y="296"/>
      <point x="206" y="325"/>
      <point x="206" y="360" type="curve" smooth="yes"/>
      <point x="206" y="395"/>
      <point x="234" y="423"/>
      <point x="269" y="423" type="curve" smooth="yes"/>
      <point x="284" y="423" type="line" smooth="yes"/>
      <point x="323" y="423"/>
      <point x="354" y="464"/>
      <point x="354" y="504" type="curve" smooth="yes"/>
      <point x="354" y="547"/>
      <point x="318" y="582"/>
      <point x="275" y="582" type="curve" smooth="yes"/>
      <point x="231" y="582"/>
      <point x="196" y="547"/>
      <point x="196" y="504" type="curve" smooth="yes"/>
      <point x="196" y="126" type="line"/>
    </contour>
    <contour>
      <point x="93" y="62" type="line"/>
      <point x="93" y="41"/>
      <point x="111" y="23"/>
      <point x="132" y="23" type="curve" smooth="yes"/>
      <point x="334" y="23" type="line" smooth="yes"/>
      <point x="440" y="23"/>
      <point x="525" y="114"/>
      <point x="525" y="214" type="curve" smooth="yes"/>
      <point x="525" y="284"/>
      <point x="485" y="348"/>
      <point x="425" y="377" type="curve" smooth="yes"/>
      <point x="416" y="381"/>
      <point x="415" y="387"/>
      <point x="421" y="395" type="curve" smooth="yes"/>
      <point x="444" y="426"/>
      <point x="455" y="465"/>
      <point x="455" y="504" type="curve" smooth="yes"/>
      <point x="455" y="604"/>
      <point x="375" y="685"/>
      <point x="275" y="685" type="curve" smooth="yes"/>
      <point x="174" y="685"/>
      <point x="93" y="609"/>
      <point x="93" y="504" type="curve" smooth="yes"/>
    </contour>
    <contour>
      <point x="132" y="38" type="line"/>
      <point x="119" y="38"/>
      <point x="108" y="49"/>
      <point x="108" y="62" type="curve" smooth="yes"/>
      <point x="108" y="504" type="line" smooth="yes"/>
      <point x="108" y="596"/>
      <point x="183" y="671"/>
      <point x="275" y="671" type="curve" smooth="yes"/>
      <point x="367" y="671"/>
      <point x="442" y="596"/>
      <point x="442" y="504" type="curve" smooth="yes"/>
      <point x="442" y="456"/>
      <point x="421" y="406"/>
      <point x="386" y="377" type="curve"/>
      <point x="460" y="360"/>
      <point x="511" y="287"/>
      <point x="511" y="214" type="curve" smooth="yes"/>
      <point x="511" y="116"/>
      <point x="428" y="38"/>
      <point x="334" y="38" type="curve" smooth="yes"/>
    </contour>
    <contour>
      <point x="126" y="62" type="line"/>
      <point x="126" y="58"/>
      <point x="129" y="56"/>
      <point x="132" y="56" type="curve" smooth="yes"/>
      <point x="334" y="56" type="line" smooth="yes"/>
      <point x="422" y="56"/>
      <point x="492" y="131"/>
      <point x="492" y="214" type="curve" smooth="yes"/>
      <point x="492" y="291"/>
      <point x="432" y="354"/>
      <point x="363" y="363" type="curve" smooth="yes"/>
      <point x="352" y="364"/>
      <point x="352" y="375"/>
      <point x="359" y="380" type="curve" smooth="yes"/>
      <point x="401" y="409"/>
      <point x="423" y="458"/>
      <point x="423" y="504" type="curve" smooth="yes"/>
      <point x="423" y="586"/>
      <point x="356" y="652"/>
      <point x="275" y="652" type="curve" smooth="yes"/>
      <point x="190" y="652"/>
      <point x="126" y="589"/>
      <point x="126" y="504" type="curve" smooth="yes"/>
    </contour>
    <contour>
      <point x="148" y="70" type="line"/>
      <point x="142" y="70"/>
      <point x="140" y="73"/>
      <point x="140" y="78" type="curve" smooth="yes"/>
      <point x="140" y="504" type="line" smooth="yes"/>
      <point x="140" y="578"/>
      <point x="200" y="639"/>
      <point x="275" y="639" type="curve" smooth="yes"/>
      <point x="349" y="639"/>
      <point x="410" y="578"/>
      <point x="410" y="504" type="curve" smooth="yes"/>
      <point x="410" y="439"/>
      <point x="357" y="373"/>
      <point x="293" y="366" type="curve"/>
      <point x="269" y="366" type="line" smooth="yes"/>
      <point x="265" y="366"/>
      <point x="262" y="363"/>
      <point x="262" y="360" type="curve" smooth="yes"/>
      <point x="262" y="356"/>
      <point x="265" y="353"/>
      <point x="269" y="353" type="curve" smooth="yes"/>
      <point x="334" y="353" type="line" smooth="yes"/>
      <point x="416" y="353"/>
      <point x="479" y="293"/>
      <point x="479" y="214" type="curve" smooth="yes"/>
      <point x="479" y="135"/>
      <point x="413" y="70"/>
      <point x="334" y="70" type="curve" smooth="yes"/>
    </contour>
    <contour>
      <point x="334" y="88" type="line"/>
      <point x="403" y="88"/>
      <point x="460" y="145"/>
      <point x="460" y="214" type="curve" smooth="yes"/>
      <point x="460" y="283"/>
      <point x="406" y="334"/>
      <point x="334" y="334" type="curve" smooth="yes"/>
      <point x="269" y="334" type="line" smooth="yes"/>
      <point x="255" y="334"/>
      <point x="243" y="345"/>
      <point x="243" y="360" type="curve" smooth="yes"/>
      <point x="243" y="374"/>
      <point x="255" y="385"/>
      <point x="269" y="385" type="curve" smooth="yes"/>
      <point x="292" y="385" type="line"/>
      <point x="349" y="394"/>
      <point x="391" y="450"/>
      <point x="391" y="504" type="curve" smooth="yes"/>
      <point x="391" y="568"/>
      <point x="338" y="620"/>
      <point x="275" y="620" type="curve" smooth="yes"/>
      <point x="210" y="620"/>
      <point x="158" y="568"/>
      <point x="158" y="504" type="curve" smooth="yes"/>
      <point x="158" y="93" type="line" smooth="yes"/>
      <point x="158" y="90"/>
      <point x="159" y="88"/>
      <point x="162" y="88" type="curve" smooth="yes"/>
    </contour>
  </outline>
</glyph>
<glyph name="B.ss5" format="1">
  <advance width="664"/>
  <unicode hex="E00A"/>
  <outline>
    <contour>
      <point x="132" y="55" type="line"/>
      <point x="132" y="35"/>
      <point x="109" y="28"/>
      <point x="60" y="21" type="curve"/>
      <point x="60" y="0" type="line"/>
      <point x="364" y="0" type="line" smooth="yes"/>
      <point x="492" y="0"/>
      <point x="634" y="86"/>
      <point x="634" y="219" type="curve" smooth="yes"/>
      <point x="634" y="345"/>
      <point x="503" y="398"/>
      <point x="410" y="398" type="curve"/>
      <point x="458" y="427"/>
      <point x="511" y="475"/>
      <point x="511" y="543" type="curve" smooth="yes"/>
      <point x="511" y="656"/>
      <point x="402" y="700"/>
      <point x="271" y="700" type="curve" smooth="yes"/>
      <point x="60" y="700" type="line"/>
      <point x="60" y="679" type="line"/>
      <point x="109" y="672"/>
      <point x="132" y="673"/>
      <point x="132" y="645" type="curve" smooth="yes"/>
    </contour>
    <contour>
      <point x="212" y="60" type="curve"/>
      <point x="212" y="85" type="line" smooth="yes"/>
      <point x="212" y="255"/>
      <point x="294" y="320"/>
      <point x="371" y="373" type="curve"/>
      <point x="479" y="370"/>
      <point x="542" y="304"/>
      <point x="542" y="219" type="curve" smooth="yes"/>
      <point x="542" y="137"/>
      <point x="485" y="31"/>
      <point x="292" y="31" type="curve" smooth="yes"/>
      <point x="271" y="31"/>
      <point x="212" y="32"/>
    </contour>
    <contour>
      <point x="212" y="645" type="line"/>
      <point x="212" y="668"/>
      <point x="230" y="673"/>
      <point x="273" y="674" type="curve"/>
      <point x="333" y="674"/>
      <point x="425" y="645"/>
      <point x="425" y="551" type="curve" smooth="yes"/>
      <point x="425" y="402"/>
      <point x="265" y="378"/>
      <point x="212" y="236" type="curve"/>
    </contour>
  </outline>
</glyph>
<glyph name="C.ss1" format="1">
  <advance width="619"/>
  <unicode hex="E00B"/>
  <outline>
    <contour>
      <point x="589" y="673" type="line"/>
      <point x="578" y="680"/>
      <point x="565" y="687"/>
      <point x="548" y="694" type="curve" smooth="yes"/>
      <point x="520" y="705"/>
      <point x="476" y="716"/>
      <point x="416" y="716" type="curve" smooth="yes"/>
      <point x="204" y="716"/>
      <point x="50" y="551"/>
      <point x="50" y="351" type="curve" smooth="yes"/>
      <point x="50" y="151"/>
      <point x="204" y="-14"/>
      <point x="427" y="-14" type="curve" smooth="yes"/>
      <point x="478" y="-14"/>
      <point x="517" y="-3"/>
      <point x="545" y="8" type="curve" smooth="yes"/>
      <point x="562" y="15"/>
      <point x="576" y="22"/>
      <point x="589" y="31" type="curve"/>
      <point x="589" y="296" type="line"/>
      <point x="578" y="282"/>
      <point x="566" y="269"/>
      <point x="551" y="258" type="curve" smooth="yes"/>
      <point x="526" y="239"/>
      <point x="490" y="221"/>
      <point x="446" y="221" type="curve" smooth="yes"/>
      <point x="358" y="221"/>
      <point x="306" y="280"/>
      <point x="306" y="351" type="curve" smooth="yes"/>
      <point x="306" y="427"/>
      <point x="357" y="480"/>
      <point x="442" y="480" type="curve" smooth="yes"/>
      <point x="489" y="480"/>
      <point x="525" y="462"/>
      <point x="550" y="445" type="curve" smooth="yes"/>
      <point x="565" y="435"/>
      <point x="578" y="424"/>
      <point x="589" y="411" type="curve"/>
    </contour>
    <contour>
      <point x="427" y="608" type="curve" smooth="yes"/>
      <point x="304" y="608"/>
      <point x="177" y="524"/>
      <point x="177" y="354" type="curve"/>
      <point x="193" y="359"/>
      <point x="209" y="365"/>
      <point x="224" y="370" type="curve" smooth="yes"/>
      <point x="251" y="379"/>
      <point x="277" y="387"/>
      <point x="294" y="394" type="curve"/>
      <point x="290" y="380"/>
      <point x="288" y="366"/>
      <point x="288" y="351" type="curve" smooth="yes"/>
      <point x="288" y="273"/>
      <point x="349" y="204"/>
      <point x="443" y="204" type="curve" smooth="yes"/>
      <point x="486" y="204"/>
      <point x="518" y="217"/>
      <point x="541" y="232" type="curve" smooth="yes"/>
      <point x="554" y="240"/>
      <point x="563" y="248"/>
      <point x="574" y="259" type="curve"/>
      <point x="574" y="149" type="line"/>
      <point x="551" y="134"/>
      <point x="508" y="109"/>
      <point x="436" y="109" type="curve" smooth="yes"/>
      <point x="283" y="109"/>
      <point x="177" y="221"/>
      <point x="177" y="354" type="curve"/>
      <point x="67" y="316" type="line"/>
      <point x="66" y="327"/>
      <point x="66" y="339"/>
      <point x="66" y="351" type="curve" smooth="yes"/>
      <point x="66" y="543"/>
      <point x="212" y="700"/>
      <point x="413" y="700" type="curve" smooth="yes"/>
      <point x="470" y="700"/>
      <point x="511" y="689"/>
      <point x="538" y="680" type="curve" smooth="yes"/>
      <point x="554" y="674"/>
      <point x="564" y="669"/>
      <point x="574" y="662" type="curve"/>
      <point x="574" y="564" type="line"/>
      <point x="551" y="579"/>
      <point x="500" y="608"/>
    </contour>
  </outline>
</glyph>
<glyph name="C.ss2" format="1">
  <advance width="621"/>
  <unicode hex="E00C"/>
  <outline>
    <contour>
      <point x="330" y="156" type="curve" smooth="yes"/>
      <point x="221" y="156"/>
      <point x="104" y="217"/>
      <point x="104" y="354" type="curve" smooth="yes"/>
      <point x="104" y="481"/>
      <point x="214" y="548"/>
      <point x="330" y="548" type="curve" smooth="yes"/>
      <point x="413" y="548"/>
      <point x="466" y="515"/>
      <point x="501" y="482" type="curve" smooth="yes"/>
      <point x="521" y="463"/>
      <point x="537" y="441"/>
      <point x="549" y="416" type="curve"/>
      <point x="581" y="416" type="line"/>
      <point x="581" y="566"/>
      <point x="521" y="712"/>
      <point x="340" y="712" type="curve" smooth="yes"/>
      <point x="161" y="712"/>
      <point x="60" y="553"/>
      <point x="60" y="354" type="curve" smooth="yes"/>
      <point x="60" y="155"/>
      <point x="161" y="-8"/>
      <point x="340" y="-8" type="curve" smooth="yes"/>
      <point x="525" y="-8"/>
      <point x="581" y="167"/>
      <point x="581" y="265" type="curve"/>
      <point x="549" y="265" type="line"/>
      <point x="537" y="244"/>
      <point x="521" y="226"/>
      <point x="500" y="210" type="curve" smooth="yes"/>
      <point x="465" y="183"/>
      <point x="410" y="156"/>
    </contour>
  </outline>
</glyph>
<glyph name="C.ss3" format="1">
  <advance width="815"/>
  <unicode hex="E00D"/>
  <outline>
    <contour>
      <point x="699" y="200" type="line"/>
      <point x="651" y="152"/>
      <point x="574" y="93"/>
      <point x="449" y="93" type="curve" smooth="yes"/>
      <point x="301" y="93"/>
      <point x="168" y="186"/>
      <point x="168" y="350" type="curve" smooth="yes"/>
      <point x="168" y="522"/>
      <point x="301" y="607"/>
      <point x="449" y="607" type="curve" smooth="yes"/>
      <point x="565" y="607"/>
      <point x="665" y="545"/>
      <point x="702" y="497" type="curve"/>
      <point x="785" y="571" type="line"/>
      <point x="726" y="643"/>
      <point x="608" y="716"/>
      <point x="449" y="716" type="curve" smooth="yes"/>
      <point x="239" y="716"/>
      <point x="50" y="571"/>
      <point x="50" y="350" type="curve" smooth="yes"/>
      <point x="50" y="129"/>
      <point x="219" y="-15"/>
      <point x="449" y="-15" type="curve" smooth="yes"/>
      <point x="605" y="-15"/>
      <point x="718" y="56"/>
      <point x="777" y="123" type="curve"/>
    </contour>
  </outline>
</glyph>
<glyph name="C.ss4" format="1">
  <advance width="616"/>
  <unicode hex="E00E"/>
  <outline>
    <contour>
      <point x="50" y="329" type="curve" smooth="yes"/>
      <point x="50" y="148"/>
      <point x="166" y="-10"/>
      <point x="347" y="-10" type="curve" smooth="yes"/>
      <point x="411" y="-10"/>
      <point x="457" y="9"/>
      <point x="486" y="28" type="curve" smooth="yes"/>
      <point x="503" y="39"/>
      <point x="518" y="52"/>
      <point x="529" y="67" type="curve"/>
      <point x="596" y="256" type="line"/>
      <point x="583" y="261" type="line"/>
      <point x="573" y="244"/>
      <point x="560" y="228"/>
      <point x="544" y="215" type="curve" smooth="yes"/>
      <point x="516" y="192"/>
      <point x="474" y="169"/>
      <point x="410" y="169" type="curve" smooth="yes"/>
      <point x="298" y="169"/>
      <point x="187" y="267"/>
      <point x="187" y="416" type="curve" smooth="yes"/>
      <point x="187" y="563"/>
      <point x="266" y="643"/>
      <point x="347" y="643" type="curve" smooth="yes"/>
      <point x="416" y="643"/>
      <point x="459" y="598"/>
      <point x="480" y="553" type="curve" smooth="yes"/>
      <point x="493" y="526"/>
      <point x="502" y="497"/>
      <point x="507" y="464" type="curve"/>
      <point x="519" y="464" type="line"/>
      <point x="588" y="683" type="line"/>
      <point x="575" y="689"/>
      <point x="561" y="695"/>
      <point x="545" y="700" type="curve" smooth="yes"/>
      <point x="518" y="709"/>
      <point x="480" y="718"/>
      <point x="436" y="718" type="curve" smooth="yes"/>
      <point x="209" y="718"/>
      <point x="50" y="538"/>
    </contour>
  </outline>
</glyph>
<glyph name="C.ss5" format="1">
  <advance width="620"/>
  <unicode hex="E00F"/>
  <outline>
    <contour>
      <point x="420" y="167" type="line"/>
      <point x="420" y="149"/>
      <point x="416" y="145"/>
      <point x="400" y="145" type="curve" smooth="yes"/>
      <point x="234" y="145" type="line" smooth="yes"/>
      <point x="219" y="145"/>
      <point x="215" y="150"/>
      <point x="215" y="167" type="curve" smooth="yes"/>
      <point x="215" y="532" type="line" smooth="yes"/>
      <point x="215" y="545"/>
      <point x="219" y="555"/>
      <point x="236" y="555" type="curve" smooth="yes"/>
      <point x="397" y="555" type="line" smooth="yes"/>
      <point x="414" y="555"/>
      <point x="420" y="547"/>
      <point x="420" y="532" type="curve" smooth="yes"/>
      <point x="420" y="418" type="line" smooth="yes"/>
      <point x="420" y="407"/>
      <point x="430" y="397"/>
      <point x="441" y="397" type="curve" smooth="yes"/>
      <point x="553" y="397" type="line" smooth="yes"/>
      <point x="565" y="397"/>
      <point x="575" y="405"/>
      <point x="575" y="418" type="curve" smooth="yes"/>
      <point x="575" y="532" type="line" smooth="yes"/>
      <point x="575" y="546"/>
      <point x="565" y="555"/>
      <point x="553" y="555" type="curve" smooth="yes"/>
      <point x="441" y="555" type="line" smooth="yes"/>
      <point x="426" y="555"/>
      <point x="420" y="562"/>
      <point x="420" y="577" type="curve" smooth="yes"/>
      <point x="420" y="677" type="line" smooth="yes"/>
      <point x="420" y="688"/>
      <point x="413" y="700"/>
      <point x="397" y="700" type="curve" smooth="yes"/>
      <point x="236" y="700" type="line" smooth="yes"/>
      <point x="222" y="700"/>
      <point x="215" y="691"/>
      <point x="215" y="677" type="curve" smooth="yes"/>
      <point x="215" y="577" type="line" smooth="yes"/>
      <point x="215" y="561"/>
      <point x="212" y="555"/>
      <point x="192" y="555" type="curve" smooth="yes"/>
      <point x="82" y="555" type="line" smooth="yes"/>
      <point x="67" y="555"/>
      <point x="60" y="547"/>
      <point x="60" y="532" type="curve" smooth="yes"/>
      <point x="60" y="167" type="line"/>
      <point x="60" y="153"/>
      <point x="65" y="145"/>
      <point x="79" y="145" type="curve"/>
      <point x="192" y="145" type="line" smooth="yes"/>
      <point x="209" y="145"/>
      <point x="215" y="141"/>
      <point x="215" y="125" type="curve" smooth="yes"/>
      <point x="215" y="18" type="line"/>
      <point x="215" y="6"/>
      <point x="221" y="0"/>
      <point x="234" y="0" type="curve"/>
      <point x="402" y="0" type="line"/>
      <point x="413" y="0"/>
      <point x="420" y="6"/>
      <point x="420" y="18" type="curve"/>
      <point x="420" y="125" type="line" smooth="yes"/>
      <point x="420" y="140"/>
      <point x="426" y="145"/>
      <point x="441" y="145" type="curve" smooth="yes"/>
      <point x="553" y="145" type="line"/>
      <point x="564" y="145"/>
      <point x="575" y="152"/>
      <point x="575" y="167" type="curve"/>
      <point x="575" y="273" type="line"/>
      <point x="575" y="287"/>
      <point x="567" y="297"/>
      <point x="553" y="297" type="curve"/>
      <point x="441" y="297" type="line"/>
      <point x="430" y="297"/>
      <point x="420" y="290"/>
      <point x="420" y="273" type="curve"/>
    </contour>
  </outline>
</glyph>
<glyph name="Corwin" format="1">
  <advance width="672"/>
  <unicode hex="E010"/>
  <outline>
    <contour>
      <point x="336" y="720" type="curve" smooth="yes"/>
      <point x="195" y="720"/>
      <point x="70" y="607"/>
      <point x="70" y="442" type="curve" smooth="yes"/>
      <point x="70" y="1" type="line" smooth="yes"/>
      <point x="70" y="-7"/>
      <point x="74" y="-11"/>
      <point x="82" y="-11" type="curve" smooth="yes"/>
      <point x="147" y="-11"/>
      <point x="168" y="48"/>
      <point x="226" y="77" type="curve"/>
      <point x="224" y="91"/>
      <point x="236" y="95"/>
      <point x="249" y="98" type="curve"/>
      <point x="262" y="103"/>
      <point x="252" y="123"/>
      <point x="238" y="128" type="curve"/>
      <point x="245" y="131"/>
      <point x="262" y="140"/>
      <point x="262" y="150" type="curve" smooth="yes"/>
      <point x="262" y="157"/>
      <point x="255" y="164"/>
      <point x="234" y="164" type="curve" smooth="yes"/>
      <point x="215" y="164"/>
      <point x="202" y="168"/>
      <point x="202" y="181" type="curve" smooth="yes"/>
      <point x="202" y="190"/>
      <point x="206" y="193"/>
      <point x="206" y="205" type="curve" smooth="yes"/>
      <point x="206" y="212"/>
      <point x="202" y="217"/>
      <point x="194" y="217" type="curve"/>
      <point x="191" y="223"/>
      <point x="196" y="228"/>
      <point x="196" y="228" type="curve"/>
      <point x="196" y="235"/>
      <point x="189" y="238"/>
      <point x="189" y="238" type="curve"/>
      <point x="189" y="238"/>
      <point x="192" y="243"/>
      <point x="192" y="249" type="curve" smooth="yes"/>
      <point x="192" y="256"/>
      <point x="189" y="260"/>
      <point x="183" y="260" type="curve" smooth="yes"/>
      <point x="180" y="260"/>
      <point x="172" y="259"/>
      <point x="172" y="267" type="curve" smooth="yes"/>
      <point x="172" y="272"/>
      <point x="178" y="277"/>
      <point x="190" y="302" type="curve"/>
      <point x="204" y="327"/>
      <point x="212" y="340"/>
      <point x="212" y="346" type="curve" smooth="yes"/>
      <point x="212" y="351"/>
      <point x="208" y="354"/>
      <point x="208" y="360" type="curve" smooth="yes"/>
      <point x="208" y="370"/>
      <point x="226" y="397"/>
      <point x="226" y="435" type="curve" smooth="yes"/>
      <point x="226" y="472"/>
      <point x="220" y="519"/>
      <point x="220" y="519" type="curve"/>
      <point x="222" y="520"/>
      <point x="225" y="522"/>
      <point x="227" y="523" type="curve"/>
      <point x="227" y="523"/>
      <point x="226" y="516"/>
      <point x="227" y="506" type="curve" smooth="yes"/>
      <point x="228" y="493"/>
      <point x="235" y="458"/>
      <point x="241" y="458" type="curve" smooth="yes"/>
      <point x="247" y="458"/>
      <point x="253" y="496"/>
      <point x="250" y="521" type="curve" smooth="yes"/>
      <point x="249" y="529"/>
      <point x="248" y="534"/>
      <point x="248" y="534" type="curve"/>
      <point x="254" y="537" type="line"/>
      <point x="254" y="537"/>
      <point x="254" y="529"/>
      <point x="255" y="520" type="curve" smooth="yes"/>
      <point x="257" y="500"/>
      <point x="259" y="471"/>
      <point x="265" y="471" type="curve" smooth="yes"/>
      <point x="271" y="471"/>
      <point x="277" y="510"/>
      <point x="277" y="530" type="curve" smooth="yes"/>
      <point x="277" y="540"/>
      <point x="276" y="545"/>
      <point x="276" y="545" type="curve"/>
      <point x="281" y="547" type="line"/>
      <point x="281" y="534" type="line" smooth="yes"/>
      <point x="281" y="514"/>
      <point x="287" y="480"/>
      <point x="293" y="480" type="curve" smooth="yes"/>
      <point x="299" y="480"/>
      <point x="305" y="519"/>
      <point x="305" y="539" type="curve" smooth="yes"/>
      <point x="305" y="548"/>
      <point x="304" y="553"/>
      <point x="304" y="553" type="curve"/>
      <point x="309" y="554" type="line"/>
      <point x="309" y="548" type="line" smooth="yes"/>
      <point x="309" y="528"/>
      <point x="315" y="489"/>
      <point x="321" y="489" type="curve" smooth="yes"/>
      <point x="327" y="489"/>
      <point x="333" y="523"/>
      <point x="333" y="543" type="curve" smooth="yes"/>
      <point x="333" y="546"/>
      <point x="333" y="554"/>
      <point x="332" y="556" type="curve"/>
      <point x="337" y="556" type="line"/>
      <point x="337" y="537"/>
      <point x="342" y="491"/>
      <point x="349" y="491" type="curve" smooth="yes"/>
      <point x="354" y="491"/>
      <point x="360" y="536"/>
      <point x="360" y="555" type="curve"/>
      <point x="365" y="554" type="line"/>
      <point x="365" y="554"/>
      <point x="364" y="548"/>
      <point x="364" y="543" type="curve" smooth="yes"/>
      <point x="364" y="522"/>
      <point x="369" y="486"/>
      <point x="376" y="486" type="curve" smooth="yes"/>
      <point x="382" y="486"/>
      <point x="387" y="525"/>
      <point x="387" y="546" type="curve" smooth="yes"/>
      <point x="387" y="548" type="line"/>
      <point x="393" y="546" type="line"/>
      <point x="393" y="546"/>
      <point x="392" y="540"/>
      <point x="392" y="532" type="curve" smooth="yes"/>
      <point x="392" y="511"/>
      <point x="397" y="472"/>
      <point x="404" y="472" type="curve" smooth="yes"/>
      <point x="410" y="472"/>
      <point x="415" y="511"/>
      <point x="415" y="532" type="curve" smooth="yes"/>
      <point x="415" y="537" type="line"/>
      <point x="421" y="533" type="line"/>
      <point x="420" y="528"/>
      <point x="420" y="501"/>
      <point x="420" y="495" type="curve" smooth="yes"/>
      <point x="420" y="474"/>
      <point x="421" y="456"/>
      <point x="427" y="456" type="curve" smooth="yes"/>
      <point x="433" y="456"/>
      <point x="443" y="497"/>
      <point x="443" y="517" type="curve"/>
      <point x="449" y="511" type="line"/>
      <point x="449" y="511"/>
      <point x="440" y="461"/>
      <point x="440" y="435" type="curve" smooth="yes"/>
      <point x="440" y="396"/>
      <point x="455" y="390"/>
      <point x="472" y="338" type="curve"/>
      <point x="488" y="285"/>
      <point x="493" y="240"/>
      <point x="511" y="214" type="curve"/>
      <point x="466" y="206"/>
      <point x="361" y="190"/>
      <point x="450" y="131" type="curve" smooth="yes"/>
      <point x="531" y="78"/>
      <point x="544" y="34"/>
      <point x="578" y="0" type="curve" smooth="yes"/>
      <point x="582" y="-4"/>
      <point x="589" y="-11"/>
      <point x="595" y="-11" type="curve" smooth="yes"/>
      <point x="599" y="-11"/>
      <point x="602" y="-9"/>
      <point x="602" y="-1" type="curve" smooth="yes"/>
      <point x="602" y="441" type="line" smooth="yes"/>
      <point x="602" y="607"/>
      <point x="482" y="720"/>
    </contour>
  </outline>
</glyph>
<glyph name="D.ss1" format="1">
  <advance width="649"/>
  <unicode hex="E011"/>
  <outline>
    <contour>
      <point x="10" y="687" type="line"/>
      <point x="61" y="687"/>
      <point x="81" y="678"/>
      <point x="81" y="639" type="curve" smooth="yes"/>
      <point x="81" y="53" type="line" smooth="yes"/>
      <point x="81" y="18"/>
      <point x="46" y="13"/>
      <point x="10" y="13" type="curve"/>
      <point x="10" y="0" type="line"/>
      <point x="261" y="0" type="line" smooth="yes"/>
      <point x="413" y="0"/>
      <point x="599" y="140"/>
      <point x="599" y="369" type="curve" smooth="yes"/>
      <point x="599" y="598"/>
      <point x="414" y="700"/>
      <point x="243" y="700" type="curve" smooth="yes"/>
      <point x="10" y="700" type="line"/>
    </contour>
    <contour>
      <point x="233" y="677" type="curve" smooth="yes"/>
      <point x="414" y="677"/>
      <point x="520" y="568"/>
      <point x="520" y="369" type="curve" smooth="yes"/>
      <point x="520" y="181"/>
      <point x="408" y="23"/>
      <point x="242" y="23" type="curve" smooth="yes"/>
      <point x="215" y="23"/>
      <point x="194" y="24"/>
      <point x="179" y="31" type="curve"/>
      <point x="170" y="34"/>
      <point x="163" y="38"/>
      <point x="157" y="43" type="curve"/>
      <point x="157" y="629" type="line" smooth="yes"/>
      <point x="157" y="673"/>
      <point x="189" y="677"/>
    </contour>
  </outline>
</glyph>
<glyph name="D.ss2" format="1">
  <advance width="534"/>
  <unicode hex="E012"/>
  <outline>
    <contour>
      <point x="-20" y="673" type="curve" smooth="yes"/>
      <point x="-20" y="658"/>
      <point x="-9" y="647"/>
      <point x="6" y="647" type="curve" smooth="yes"/>
      <point x="124" y="647" type="line"/>
      <point x="124" y="53" type="line"/>
      <point x="6" y="53" type="line" smooth="yes"/>
      <point x="-9" y="53"/>
      <point x="-20" y="41"/>
      <point x="-20" y="26" type="curve" smooth="yes"/>
      <point x="-20" y="11"/>
      <point x="-9" y="0"/>
      <point x="6" y="0" type="curve" smooth="yes"/>
      <point x="197" y="0" type="line" smooth="yes"/>
      <point x="407" y="0"/>
      <point x="474" y="153"/>
      <point x="474" y="358" type="curve" smooth="yes"/>
      <point x="474" y="557"/>
      <point x="407" y="700"/>
      <point x="197" y="700" type="curve" smooth="yes"/>
      <point x="6" y="700" type="line" smooth="yes"/>
      <point x="-9" y="700"/>
      <point x="-20" y="688"/>
    </contour>
    <contour>
      <point x="197" y="647" type="line"/>
      <point x="361" y="647"/>
      <point x="414" y="550"/>
      <point x="414" y="357" type="curve" smooth="yes"/>
      <point x="414" y="165"/>
      <point x="360" y="53"/>
      <point x="197" y="53" type="curve" smooth="yes"/>
      <point x="182" y="53" type="line"/>
      <point x="182" y="647" type="line"/>
    </contour>
  </outline>
</glyph>
<glyph name="D.ss3" format="1">
  <advance width="787"/>
  <unicode hex="E013"/>
  <outline>
    <contour>
      <point x="407" y="-11" type="curve" smooth="yes"/>
      <point x="543" y="-11"/>
      <point x="737" y="201"/>
      <point x="737" y="376" type="curve" smooth="yes"/>
      <point x="737" y="552"/>
      <point x="583" y="717"/>
      <point x="350" y="717" type="curve" smooth="yes"/>
      <point x="146" y="717"/>
      <point x="-20" y="598"/>
      <point x="-20" y="475" type="curve" smooth="yes"/>
      <point x="-20" y="387"/>
      <point x="40" y="333"/>
      <point x="111" y="333" type="curve" smooth="yes"/>
      <point x="143" y="333"/>
      <point x="166" y="343"/>
      <point x="183" y="359" type="curve"/>
      <point x="183" y="353" type="line"/>
      <point x="184" y="148" type="line"/>
      <point x="169" y="151"/>
      <point x="156" y="152"/>
      <point x="141" y="152" type="curve" smooth="yes"/>
      <point x="107" y="152"/>
      <point x="85" y="135"/>
      <point x="34" y="67" type="curve" smooth="yes"/>
      <point x="19" y="48"/>
      <point x="3" y="27"/>
      <point x="-16" y="4" type="curve"/>
      <point x="-5" y="-5" type="line"/>
      <point x="2" y="7"/>
      <point x="12" y="18"/>
      <point x="24" y="28" type="curve" smooth="yes"/>
      <point x="44" y="44"/>
      <point x="75" y="61"/>
      <point x="122" y="61" type="curve" smooth="yes"/>
      <point x="145" y="61"/>
      <point x="164" y="58"/>
      <point x="184" y="53" type="curve"/>
      <point x="184" y="-53" type="line"/>
      <point x="189" y="-51" type="line"/>
      <point x="196" y="-49" type="line"/>
      <point x="196" y="50" type="line"/>
      <point x="267" y="29"/>
      <point x="330" y="-11"/>
    </contour>
    <contour>
      <point x="183" y="600" type="line"/>
      <point x="183" y="526" type="line" smooth="yes"/>
      <point x="183" y="509"/>
      <point x="164" y="488"/>
      <point x="155" y="477" type="curve" smooth="yes"/>
      <point x="140" y="458"/>
      <point x="121" y="445"/>
      <point x="118" y="442" type="curve"/>
      <point x="121" y="441"/>
      <point x="139" y="426"/>
      <point x="155" y="407" type="curve"/>
      <point x="159" y="400"/>
      <point x="172" y="388"/>
      <point x="179" y="372" type="curve"/>
      <point x="164" y="357"/>
      <point x="143" y="345"/>
      <point x="111" y="345" type="curve" smooth="yes"/>
      <point x="40" y="345"/>
      <point x="-6" y="406"/>
      <point x="-6" y="475" type="curve" smooth="yes"/>
      <point x="-6" y="591"/>
      <point x="146" y="667"/>
      <point x="267" y="667" type="curve" smooth="yes"/>
      <point x="536" y="667"/>
      <point x="657" y="463"/>
      <point x="657" y="291" type="curve" smooth="yes"/>
      <point x="657" y="159"/>
      <point x="574" y="70"/>
      <point x="466" y="70" type="curve" smooth="yes"/>
      <point x="380" y="70"/>
      <point x="291" y="128"/>
      <point x="197" y="146" type="curve"/>
      <point x="197" y="362" type="line"/>
      <point x="200" y="381"/>
      <point x="213" y="393"/>
      <point x="226" y="408" type="curve" smooth="yes"/>
      <point x="233" y="415"/>
      <point x="240" y="423"/>
      <point x="249" y="431" type="curve" smooth="yes"/>
      <point x="254" y="435"/>
      <point x="258" y="439"/>
      <point x="263" y="442" type="curve"/>
      <point x="258" y="446"/>
      <point x="254" y="450"/>
      <point x="250" y="454" type="curve" smooth="yes"/>
      <point x="241" y="461"/>
      <point x="233" y="469"/>
      <point x="226" y="478" type="curve" smooth="yes"/>
      <point x="211" y="494"/>
      <point x="198" y="512"/>
      <point x="198" y="528" type="curve" smooth="yes"/>
      <point x="198" y="612" type="line"/>
    </contour>
  </outline>
</glyph>
<glyph name="D.ss4" format="1">
  <advance width="595"/>
  <unicode hex="E014"/>
  <outline>
    <contour>
      <point x="187" y="0" type="line"/>
      <point x="187" y="596" type="line"/>
      <point x="334" y="596" type="line" smooth="yes"/>
      <point x="385" y="596"/>
      <point x="418" y="566"/>
      <point x="418" y="517" type="curve" smooth="yes"/>
      <point x="418" y="188" type="line" smooth="yes"/>
      <point x="418" y="140"/>
      <point x="390" y="105"/>
      <point x="334" y="105" type="curve" smooth="yes"/>
      <point x="287" y="105" type="line"/>
      <point x="193" y="0" type="line"/>
      <point x="319" y="0" type="line" smooth="yes"/>
      <point x="456" y="0"/>
      <point x="525" y="75"/>
      <point x="525" y="204" type="curve" smooth="yes"/>
      <point x="525" y="503" type="line" smooth="yes"/>
      <point x="525" y="628"/>
      <point x="474" y="700"/>
      <point x="319" y="700" type="curve" smooth="yes"/>
      <point x="80" y="700" type="line"/>
      <point x="80" y="0" type="line"/>
    </contour>
  </outline>
</glyph>
<glyph name="D.ss5" format="1">
  <advance width="668"/>
  <unicode hex="E015"/>
  <outline>
    <contour>
      <point x="30" y="-6" type="curve"/>
      <point x="30" y="-6"/>
      <point x="191" y="0"/>
      <point x="338" y="0" type="curve" smooth="yes"/>
      <point x="573" y="0"/>
      <point x="618" y="218"/>
      <point x="618" y="373" type="curve" smooth="yes"/>
      <point x="618" y="603"/>
      <point x="507" y="700"/>
      <point x="339" y="700" type="curve" smooth="yes"/>
      <point x="109" y="700"/>
      <point x="42" y="707"/>
      <point x="42" y="707" type="curve"/>
      <point x="42" y="707"/>
      <point x="81" y="668"/>
      <point x="99" y="581" type="curve" smooth="yes"/>
      <point x="126" y="453"/>
      <point x="119" y="273"/>
      <point x="99" y="133" type="curve" smooth="yes"/>
      <point x="87" y="50"/>
      <point x="30" y="-6"/>
    </contour>
    <contour>
      <point x="279" y="65" type="curve" smooth="yes"/>
      <point x="270" y="65"/>
      <point x="249" y="67"/>
      <point x="241" y="69" type="curve"/>
      <point x="241" y="69"/>
      <point x="235" y="218"/>
      <point x="235" y="374" type="curve"/>
      <point x="235" y="514"/>
      <point x="241" y="633"/>
      <point x="241" y="633" type="curve"/>
      <point x="248" y="636"/>
      <point x="270" y="639"/>
      <point x="281" y="639" type="curve" smooth="yes"/>
      <point x="376" y="639"/>
      <point x="473" y="609"/>
      <point x="473" y="369" type="curve" smooth="yes"/>
      <point x="473" y="99"/>
      <point x="367" y="65"/>
    </contour>
    <contour>
      <point x="70" y="14" type="curve"/>
      <point x="70" y="14"/>
      <point x="107" y="50"/>
      <point x="119" y="133" type="curve" smooth="yes"/>
      <point x="139" y="273"/>
      <point x="146" y="453"/>
      <point x="119" y="581" type="curve" smooth="yes"/>
      <point x="101" y="668"/>
      <point x="82" y="687"/>
      <point x="82" y="687" type="curve"/>
      <point x="82" y="687"/>
      <point x="109" y="680"/>
      <point x="339" y="680" type="curve" smooth="yes"/>
      <point x="507" y="680"/>
      <point x="596" y="574"/>
      <point x="596" y="373" type="curve" smooth="yes"/>
      <point x="596" y="254"/>
      <point x="573" y="20"/>
      <point x="338" y="20" type="curve" smooth="yes"/>
      <point x="191" y="20"/>
      <point x="103" y="17"/>
    </contour>
    <contour>
      <point x="279" y="45" type="curve" smooth="yes"/>
      <point x="376" y="45"/>
      <point x="495" y="87"/>
      <point x="495" y="369" type="curve" smooth="yes"/>
      <point x="495" y="628"/>
      <point x="383" y="659"/>
      <point x="281" y="659" type="curve" smooth="yes"/>
      <point x="270" y="659"/>
      <point x="228" y="656"/>
      <point x="221" y="653" type="curve"/>
      <point x="221" y="653"/>
      <point x="215" y="514"/>
      <point x="215" y="374" type="curve" smooth="yes"/>
      <point x="215" y="218"/>
      <point x="221" y="49"/>
      <point x="221" y="49" type="curve"/>
      <point x="229" y="47"/>
      <point x="270" y="45"/>
    </contour>
  </outline>
</glyph>
<glyph name="E.ss1" format="1">
  <advance width="725"/>
  <unicode hex="E016"/>
  <outline>
    <contour>
      <point x="80" y="535" type="line"/>
      <point x="645" y="535" type="line"/>
      <point x="645" y="700" type="line"/>
      <point x="80" y="700" type="line"/>
    </contour>
    <contour>
      <point x="80" y="267" type="line"/>
      <point x="645" y="267" type="line"/>
      <point x="645" y="432" type="line"/>
      <point x="80" y="432" type="line"/>
    </contour>
    <contour>
      <point x="80" y="0" type="line"/>
      <point x="645" y="0" type="line"/>
      <point x="645" y="165" type="line"/>
      <point x="80" y="165" type="line"/>
    </contour>
  </outline>
</glyph>
<glyph name="E.ss2" format="1">
  <advance width="574"/>
  <unicode hex="E017"/>
  <outline>
    <contour>
      <point x="80" y="551" type="line"/>
      <point x="158" y="551" type="line"/>
      <point x="131" y="540"/>
      <point x="114" y="517"/>
      <point x="114" y="488" type="curve" smooth="yes"/>
      <point x="114" y="460"/>
      <point x="131" y="437"/>
      <point x="156" y="426" type="curve"/>
      <point x="80" y="426" type="line"/>
      <point x="80" y="277" type="line"/>
      <point x="161" y="277" type="line"/>
      <point x="134" y="268"/>
      <point x="114" y="244"/>
      <point x="114" y="213" type="curve" smooth="yes"/>
      <point x="114" y="182"/>
      <point x="134" y="157"/>
      <point x="161" y="149" type="curve"/>
      <point x="80" y="149" type="line"/>
      <point x="80" y="0" type="line"/>
      <point x="504" y="0" type="line"/>
      <point x="504" y="149" type="line"/>
      <point x="200" y="149" type="line"/>
      <point x="228" y="157"/>
      <point x="248" y="182"/>
      <point x="248" y="213" type="curve" smooth="yes"/>
      <point x="248" y="244"/>
      <point x="228" y="268"/>
      <point x="200" y="277" type="curve"/>
      <point x="504" y="277" type="line"/>
      <point x="504" y="426" type="line"/>
      <point x="205" y="426" type="line"/>
      <point x="230" y="437"/>
      <point x="248" y="459"/>
      <point x="248" y="488" type="curve" smooth="yes"/>
      <point x="248" y="517"/>
      <point x="230" y="542"/>
      <point x="203" y="551" type="curve"/>
      <point x="504" y="551" type="line"/>
      <point x="504" y="700" type="line"/>
      <point x="80" y="700" type="line"/>
    </contour>
  </outline>
</glyph>
<glyph name="E.ss3" format="1">
  <advance width="607"/>
  <unicode hex="E018"/>
  <outline>
    <contour>
      <point x="508" y="246" type="line"/>
      <point x="508" y="51" type="line"/>
      <point x="179" y="51" type="line"/>
      <point x="179" y="331" type="line"/>
      <point x="327" y="331" type="line"/>
      <point x="327" y="224" type="line"/>
      <point x="375" y="224" type="line"/>
      <point x="375" y="496" type="line"/>
      <point x="327" y="496" type="line"/>
      <point x="327" y="382" type="line"/>
      <point x="179" y="382" type="line"/>
      <point x="179" y="649" type="line"/>
      <point x="507" y="649" type="line"/>
      <point x="507" y="475" type="line"/>
      <point x="557" y="475" type="line"/>
      <point x="557" y="700" type="line"/>
      <point x="5" y="700" type="line"/>
      <point x="5" y="649" type="line"/>
      <point x="123" y="649" type="line"/>
      <point x="123" y="51" type="line"/>
      <point x="7" y="51" type="line"/>
      <point x="7" y="0" type="line"/>
      <point x="557" y="0" type="line"/>
      <point x="557" y="246" type="line"/>
    </contour>
  </outline>
</glyph>
<glyph name="E.ss4" format="1">
  <advance width="491"/>
  <unicode hex="E019"/>
  <outline>
    <contour>
      <point x="125" y="-44" type="line"/>
      <point x="152" y="45" type="line"/>
      <point x="190" y="59" type="line"/>
      <point x="228" y="45" type="line"/>
      <point x="256" y="-44" type="line"/>
      <point x="283" y="45" type="line"/>
      <point x="321" y="59" type="line"/>
      <point x="359" y="45" type="line"/>
      <point x="387" y="-44" type="line"/>
      <point x="414" y="45" type="line"/>
      <point x="481" y="70" type="line"/>
      <point x="414" y="95" type="line"/>
      <point x="387" y="184" type="line"/>
      <point x="359" y="95" type="line"/>
      <point x="321" y="80" type="line"/>
      <point x="283" y="95" type="line"/>
      <point x="256" y="184" type="line"/>
      <point x="228" y="95" type="line"/>
      <point x="190" y="80" type="line"/>
      <point x="152" y="94" type="line"/>
      <point x="139" y="138" type="line"/>
      <point x="152" y="181" type="line"/>
      <point x="219" y="206" type="line"/>
      <point x="153" y="230" type="line"/>
      <point x="139" y="275" type="line"/>
      <point x="152" y="318" type="line"/>
      <point x="190" y="332" type="line"/>
      <point x="229" y="318" type="line"/>
      <point x="256" y="230" type="line"/>
      <point x="283" y="318" type="line"/>
      <point x="349" y="343" type="line"/>
      <point x="284" y="367" type="line"/>
      <point x="256" y="457" type="line"/>
      <point x="228" y="368" type="line"/>
      <point x="190" y="353" type="line"/>
      <point x="153" y="367" type="line"/>
      <point x="139" y="412" type="line"/>
      <point x="152" y="455" type="line"/>
      <point x="219" y="480" type="line"/>
      <point x="152" y="505" type="line"/>
      <point x="139" y="548" type="line"/>
      <point x="152" y="592" type="line"/>
      <point x="190" y="606" type="line"/>
      <point x="228" y="592" type="line"/>
      <point x="256" y="503" type="line"/>
      <point x="283" y="592" type="line"/>
      <point x="321" y="606" type="line"/>
      <point x="359" y="592" type="line"/>
      <point x="387" y="503" type="line"/>
      <point x="414" y="592" type="line"/>
      <point x="481" y="617" type="line"/>
      <point x="414" y="642" type="line"/>
      <point x="387" y="731" type="line"/>
      <point x="359" y="642" type="line"/>
      <point x="321" y="627" type="line"/>
      <point x="283" y="642" type="line"/>
      <point x="256" y="731" type="line"/>
      <point x="228" y="642" type="line"/>
      <point x="190" y="627" type="line"/>
      <point x="152" y="642" type="line"/>
      <point x="125" y="731" type="line"/>
      <point x="97" y="642" type="line"/>
      <point x="31" y="617" type="line"/>
      <point x="97" y="592" type="line"/>
      <point x="111" y="548" type="line"/>
      <point x="97" y="505" type="line"/>
      <point x="30" y="480" type="line"/>
      <point x="97" y="455" type="line"/>
      <point x="111" y="411" type="line"/>
      <point x="97" y="368" type="line"/>
      <point x="31" y="343" type="line"/>
      <point x="98" y="318" type="line"/>
      <point x="111" y="275" type="line"/>
      <point x="97" y="231" type="line"/>
      <point x="30" y="206" type="line"/>
      <point x="98" y="180" type="line"/>
      <point x="111" y="138" type="line"/>
      <point x="97" y="95" type="line"/>
      <point x="31" y="70" type="line"/>
      <point x="97" y="45" type="line"/>
    </contour>
  </outline>
</glyph>
<glyph name="E.ss5" format="1">
  <advance width="620"/>
  <unicode hex="E01A"/>
  <outline>
    <contour>
      <point x="80" y="0" type="line"/>
      <point x="550" y="0" type="line"/>
      <point x="550" y="203" type="line"/>
      <point x="296" y="203" type="line"/>
      <point x="296" y="251" type="line"/>
      <point x="470" y="251" type="line"/>
      <point x="470" y="450" type="line"/>
      <point x="296" y="450" type="line"/>
      <point x="296" y="497" type="line"/>
      <point x="540" y="497" type="line"/>
      <point x="540" y="700" type="line"/>
      <point x="80" y="700" type="line"/>
    </contour>
    <contour>
      <point x="155" y="630" type="line"/>
      <point x="467" y="630" type="line"/>
      <point x="467" y="567" type="line"/>
      <point x="221" y="567" type="line"/>
      <point x="221" y="380" type="line"/>
      <point x="397" y="380" type="line"/>
      <point x="397" y="321" type="line"/>
      <point x="221" y="321" type="line"/>
      <point x="221" y="133" type="line"/>
      <point x="477" y="133" type="line"/>
      <point x="477" y="70" type="line"/>
      <point x="155" y="70" type="line"/>
    </contour>
    <contour>
      <point x="110" y="673" type="line"/>
      <point x="509" y="673" type="line"/>
      <point x="509" y="526" type="line"/>
      <point x="265" y="526" type="line"/>
      <point x="265" y="425" type="line"/>
      <point x="441" y="425" type="line"/>
      <point x="441" y="279" type="line"/>
      <point x="265" y="279" type="line"/>
      <point x="265" y="175" type="line"/>
      <point x="521" y="175" type="line"/>
      <point x="521" y="29" type="line"/>
      <point x="110" y="29" type="line"/>
    </contour>
    <contour>
      <point x="251" y="293" type="line"/>
      <point x="427" y="293" type="line"/>
      <point x="427" y="411" type="line"/>
      <point x="251" y="411" type="line"/>
      <point x="251" y="540" type="line"/>
      <point x="495" y="540" type="line"/>
      <point x="495" y="659" type="line"/>
      <point x="124" y="659" type="line"/>
      <point x="124" y="43" type="line"/>
      <point x="507" y="43" type="line"/>
      <point x="507" y="161" type="line"/>
      <point x="251" y="161" type="line"/>
    </contour>
  </outline>
</glyph>
<glyph name="F.ss1" format="1">
  <advance width="388"/>
  <unicode hex="E01B"/>
  <outline>
    <contour>
      <point x="429" y="646" type="line"/>
      <point x="429" y="700" type="line"/>
      <point x="86" y="700" type="line"/>
      <point x="86" y="0" type="line"/>
      <point x="142" y="0" type="line"/>
      <point x="142" y="646" type="line"/>
    </contour>
    <contour>
      <point x="429" y="576" type="line"/>
      <point x="429" y="630" type="line"/>
      <point x="159" y="630" type="line"/>
      <point x="159" y="346" type="line"/>
      <point x="374" y="346" type="line"/>
      <point x="374" y="400" type="line"/>
      <point x="215" y="400" type="line"/>
      <point x="215" y="576" type="line"/>
    </contour>
    <contour>
      <point x="374" y="276" type="line"/>
      <point x="374" y="330" type="line"/>
      <point x="159" y="330" type="line"/>
      <point x="159" y="0" type="line"/>
      <point x="215" y="0" type="line"/>
      <point x="215" y="276" type="line"/>
    </contour>
  </outline>
</glyph>
<glyph name="F.ss2" format="1">
  <advance width="615"/>
  <unicode hex="E01C"/>
  <outline>
    <contour>
      <point x="370" y="0" type="line"/>
      <point x="370" y="114" type="line"/>
      <point x="240" y="114" type="line"/>
      <point x="240" y="296" type="line"/>
      <point x="332" y="296" type="line"/>
      <point x="332" y="202" type="line"/>
      <point x="441" y="202" type="line"/>
      <point x="441" y="502" type="line"/>
      <point x="332" y="502" type="line"/>
      <point x="332" y="406" type="line"/>
      <point x="240" y="406" type="line"/>
      <point x="240" y="586" type="line"/>
      <point x="528" y="586" type="line"/>
      <point x="528" y="398" type="line"/>
      <point x="645" y="398" type="line"/>
      <point x="645" y="700" type="line"/>
      <point x="0" y="700" type="line"/>
      <point x="0" y="586" type="line"/>
      <point x="121" y="586" type="line"/>
      <point x="121" y="114" type="line"/>
      <point x="0" y="114" type="line"/>
      <point x="0" y="0" type="line"/>
    </contour>
  </outline>
</glyph>
<glyph name="F.ss3" format="1">
  <advance width="502"/>
  <unicode hex="E01D"/>
  <outline>
    <contour>
      <point x="10" y="0" type="line"/>
      <point x="355" y="0" type="line"/>
      <point x="355" y="15" type="line"/>
      <point x="304" y="29"/>
      <point x="256" y="35"/>
      <point x="253" y="105" type="curve"/>
      <point x="253" y="273" type="line"/>
      <point x="264" y="304"/>
      <point x="295" y="332"/>
      <point x="334" y="332" type="curve" smooth="yes"/>
      <point x="362" y="332"/>
      <point x="383" y="319"/>
      <point x="383" y="296" type="curve" smooth="yes"/>
      <point x="383" y="265"/>
      <point x="352" y="258"/>
      <point x="336" y="274" type="curve"/>
      <point x="327" y="263" type="line"/>
      <point x="346" y="240"/>
      <point x="376" y="228"/>
      <point x="409" y="228" type="curve" smooth="yes"/>
      <point x="469" y="228"/>
      <point x="515" y="273"/>
      <point x="515" y="333" type="curve" smooth="yes"/>
      <point x="515" y="393"/>
      <point x="469" y="439"/>
      <point x="409" y="439" type="curve" smooth="yes"/>
      <point x="315" y="439"/>
      <point x="264" y="364"/>
      <point x="253" y="299" type="curve"/>
      <point x="253" y="566" type="line" smooth="yes"/>
      <point x="253" y="622"/>
      <point x="283" y="637"/>
      <point x="336" y="637" type="curve" smooth="yes"/>
      <point x="434" y="637"/>
      <point x="520" y="564"/>
      <point x="547" y="447" type="curve"/>
      <point x="562" y="447" type="line"/>
      <point x="562" y="700" type="line"/>
      <point x="10" y="700" type="line"/>
      <point x="10" y="685" type="line"/>
      <point x="61" y="669"/>
      <point x="106" y="664"/>
      <point x="109" y="594" type="curve"/>
      <point x="109" y="107" type="line"/>
      <point x="106" y="35"/>
      <point x="61" y="31"/>
      <point x="10" y="15" type="curve"/>
    </contour>
  </outline>
</glyph>
<glyph name="F.ss4" format="1">
  <advance width="487"/>
  <unicode hex="E01E"/>
  <outline>
    <contour>
      <point x="0" y="0" type="line"/>
      <point x="270" y="0" type="line"/>
      <point x="270" y="16" type="line"/>
      <point x="227" y="16" type="line" smooth="yes"/>
      <point x="177" y="16"/>
      <point x="167" y="74"/>
      <point x="167" y="122" type="curve" smooth="yes"/>
      <point x="167" y="329" type="line"/>
      <point x="185" y="329" type="line" smooth="yes"/>
      <point x="304" y="329"/>
      <point x="352" y="295"/>
      <point x="352" y="190" type="curve" smooth="yes"/>
      <point x="352" y="168" type="line"/>
      <point x="367" y="168" type="line"/>
      <point x="367" y="517" type="line"/>
      <point x="352" y="517" type="line"/>
      <point x="352" y="495" type="line" smooth="yes"/>
      <point x="352" y="391"/>
      <point x="304" y="350"/>
      <point x="185" y="350" type="curve" smooth="yes"/>
      <point x="167" y="350" type="line"/>
      <point x="167" y="684" type="line"/>
      <point x="310" y="684" type="line" smooth="yes"/>
      <point x="437" y="684"/>
      <point x="502" y="609"/>
      <point x="502" y="497" type="curve" smooth="yes"/>
      <point x="502" y="465" type="line"/>
      <point x="517" y="465" type="line"/>
      <point x="517" y="700" type="line"/>
      <point x="0" y="700" type="line"/>
      <point x="0" y="684" type="line"/>
      <point x="43" y="684" type="line" smooth="yes"/>
      <point x="99" y="684"/>
      <point x="103" y="640"/>
      <point x="103" y="593" type="curve" smooth="yes"/>
      <point x="103" y="122" type="line" smooth="yes"/>
      <point x="103" y="74"/>
      <point x="93" y="16"/>
      <point x="43" y="16" type="curve" smooth="yes"/>
      <point x="0" y="16" type="line"/>
    </contour>
  </outline>
</glyph>
<glyph name="F.ss5" format="1">
  <advance width="540"/>
  <unicode hex="E01F"/>
  <outline>
    <contour>
      <point x="450" y="445" type="curve" smooth="yes"/>
      <point x="452" y="454"/>
      <point x="449" y="464"/>
      <point x="437" y="464" type="curve" smooth="yes"/>
      <point x="425" y="464"/>
      <point x="421" y="451"/>
      <point x="419" y="445" type="curve" smooth="yes"/>
      <point x="412" y="422"/>
      <point x="404" y="396"/>
      <point x="376" y="396" type="curve" smooth="yes"/>
      <point x="324" y="396"/>
      <point x="300" y="412"/>
      <point x="300" y="454" type="curve" smooth="yes"/>
      <point x="300" y="511"/>
      <point x="295" y="554"/>
      <point x="302" y="612" type="curve" smooth="yes"/>
      <point x="306" y="644"/>
      <point x="318" y="662"/>
      <point x="370" y="662" type="curve" smooth="yes"/>
      <point x="474" y="662"/>
      <point x="522" y="574"/>
      <point x="547" y="529" type="curve" smooth="yes"/>
      <point x="553" y="518"/>
      <point x="558" y="509"/>
      <point x="569" y="509" type="curve" smooth="yes"/>
      <point x="578" y="509"/>
      <point x="583" y="520"/>
      <point x="576" y="535" type="curve" smooth="yes"/>
      <point x="527" y="641"/>
      <point x="532" y="728"/>
      <point x="528" y="751" type="curve" smooth="yes"/>
      <point x="526" y="763"/>
      <point x="518" y="765"/>
      <point x="511" y="765" type="curve" smooth="yes"/>
      <point x="503" y="765"/>
      <point x="495" y="759"/>
      <point x="495" y="751" type="curve" smooth="yes"/>
      <point x="495" y="746"/>
      <point x="496" y="730"/>
      <point x="488" y="721" type="curve" smooth="yes"/>
      <point x="473" y="705"/>
      <point x="433" y="700"/>
      <point x="312" y="700" type="curve" smooth="yes"/>
      <point x="163" y="700"/>
      <point x="105" y="705"/>
      <point x="76" y="705" type="curve" smooth="yes"/>
      <point x="69" y="705"/>
      <point x="60" y="701"/>
      <point x="60" y="691" type="curve" smooth="yes"/>
      <point x="60" y="679"/>
      <point x="70" y="676"/>
      <point x="76" y="675" type="curve" smooth="yes"/>
      <point x="129" y="669"/>
      <point x="146" y="648"/>
      <point x="149" y="623" type="curve" smooth="yes"/>
      <point x="158" y="538"/>
      <point x="159" y="178"/>
      <point x="149" y="88" type="curve" smooth="yes"/>
      <point x="144" y="46"/>
      <point x="124" y="26"/>
      <point x="96" y="26" type="curve" smooth="yes"/>
      <point x="90" y="26"/>
      <point x="80" y="22"/>
      <point x="80" y="10" type="curve" smooth="yes"/>
      <point x="80" y="3"/>
      <point x="86" y="-4"/>
      <point x="96" y="-4" type="curve" smooth="yes"/>
      <point x="96" y="-4"/>
      <point x="171" y="2"/>
      <point x="234" y="0" type="curve"/>
      <point x="287" y="0"/>
      <point x="319" y="-4"/>
      <point x="363" y="-4" type="curve" smooth="yes"/>
      <point x="372" y="-4"/>
      <point x="379" y="3"/>
      <point x="379" y="11" type="curve" smooth="yes"/>
      <point x="379" y="20"/>
      <point x="372" y="26"/>
      <point x="363" y="26" type="curve" smooth="yes"/>
      <point x="330" y="26"/>
      <point x="315" y="46"/>
      <point x="310" y="88" type="curve" smooth="yes"/>
      <point x="305" y="128"/>
      <point x="298" y="228"/>
      <point x="303" y="312" type="curve" smooth="yes"/>
      <point x="305" y="338"/>
      <point x="313" y="353"/>
      <point x="337" y="353" type="curve" smooth="yes"/>
      <point x="407" y="353"/>
      <point x="422" y="290"/>
      <point x="434" y="256" type="curve" smooth="yes"/>
      <point x="438" y="243"/>
      <point x="444" y="233"/>
      <point x="455" y="234" type="curve" smooth="yes"/>
      <point x="465" y="235"/>
      <point x="465" y="246"/>
      <point x="463" y="262" type="curve" smooth="yes"/>
      <point x="459" y="290"/>
      <point x="443" y="336"/>
      <point x="443" y="379" type="curve" smooth="yes"/>
      <point x="443" y="419"/>
      <point x="447" y="430"/>
    </contour>
  </outline>
</glyph>
<glyph name="G.ss1" format="1">
  <advance width="658"/>
  <unicode hex="E020"/>
  <outline>
    <contour>
      <point x="414" y="75" type="line"/>
      <point x="261" y="75"/>
      <point x="145" y="200"/>
      <point x="145" y="353" type="curve" smooth="yes"/>
      <point x="145" y="505"/>
      <point x="251" y="627"/>
      <point x="404" y="627" type="curve" smooth="yes"/>
      <point x="540" y="627"/>
      <point x="657" y="521"/>
      <point x="664" y="382" type="curve"/>
      <point x="758" y="382" type="line"/>
      <point x="753" y="565"/>
      <point x="594" y="715"/>
      <point x="404" y="715" type="curve" smooth="yes"/>
      <point x="203" y="715"/>
      <point x="50" y="553"/>
      <point x="50" y="353" type="curve" smooth="yes"/>
      <point x="50" y="152"/>
      <point x="209" y="-14"/>
      <point x="414" y="-14" type="curve" smooth="yes"/>
      <point x="451" y="-14"/>
      <point x="486" y="-9"/>
      <point x="521" y="2" type="curve"/>
      <point x="521" y="418" type="line"/>
      <point x="427" y="418" type="line"/>
      <point x="427" y="76" type="line"/>
    </contour>
  </outline>
</glyph>
<glyph name="G.ss2" format="1">
  <advance width="708"/>
  <unicode hex="E021"/>
  <outline>
    <contour>
      <point x="439" y="300" type="curve"/>
      <point x="437" y="300" type="line"/>
      <point x="436" y="300"/>
      <point x="436" y="299"/>
      <point x="436" y="297" type="curve" smooth="yes"/>
      <point x="436" y="296"/>
      <point x="436" y="295"/>
      <point x="437" y="295" type="curve" smooth="yes"/>
      <point x="438" y="294"/>
      <point x="438" y="294"/>
      <point x="439" y="294" type="curve"/>
      <point x="478" y="284" type="line" smooth="yes"/>
      <point x="499" y="279"/>
      <point x="504" y="261"/>
      <point x="504" y="229" type="curve" smooth="yes"/>
      <point x="504" y="175" type="line" smooth="yes"/>
      <point x="504" y="162"/>
      <point x="491" y="130"/>
      <point x="422" y="130" type="curve" smooth="yes"/>
      <point x="279" y="130"/>
      <point x="203" y="226"/>
      <point x="203" y="353" type="curve" smooth="yes"/>
      <point x="203" y="502"/>
      <point x="298" y="568"/>
      <point x="422" y="568" type="curve" smooth="yes"/>
      <point x="499" y="568"/>
      <point x="581" y="539"/>
      <point x="594" y="479" type="curve"/>
      <point x="606" y="417" type="line"/>
      <point x="606" y="415" type="line"/>
      <point x="606" y="414"/>
      <point x="607" y="414"/>
      <point x="609" y="414" type="curve" smooth="yes"/>
      <point x="611" y="414"/>
      <point x="612" y="414"/>
      <point x="612" y="415" type="curve"/>
      <point x="612" y="654" type="line"/>
      <point x="599" y="665"/>
      <point x="583" y="674"/>
      <point x="565" y="682" type="curve" smooth="yes"/>
      <point x="533" y="697"/>
      <point x="486" y="710"/>
      <point x="422" y="710" type="curve" smooth="yes"/>
      <point x="204" y="710"/>
      <point x="50" y="568"/>
      <point x="50" y="353" type="curve" smooth="yes"/>
      <point x="50" y="153"/>
      <point x="199" y="-14"/>
      <point x="422" y="-14" type="curve" smooth="yes"/>
      <point x="495" y="-14"/>
      <point x="554" y="2"/>
      <point x="594" y="19" type="curve" smooth="yes"/>
      <point x="617" y="28"/>
      <point x="638" y="39"/>
      <point x="656" y="52" type="curve"/>
      <point x="656" y="229" type="line" smooth="yes"/>
      <point x="656" y="261"/>
      <point x="658" y="278"/>
      <point x="681" y="285" type="curve" smooth="yes"/>
      <point x="715" y="294" type="line"/>
      <point x="716" y="295" type="line"/>
      <point x="717" y="295"/>
      <point x="718" y="296"/>
      <point x="718" y="297" type="curve" smooth="yes"/>
      <point x="718" y="299"/>
      <point x="717" y="300"/>
      <point x="716" y="300" type="curve"/>
      <point x="715" y="300" type="line"/>
      <point x="698" y="299"/>
      <point x="682" y="299"/>
      <point x="666" y="298" type="curve" smooth="yes"/>
      <point x="638" y="297"/>
      <point x="605" y="297"/>
      <point x="580" y="297" type="curve" smooth="yes"/>
      <point x="553" y="297"/>
      <point x="519" y="297"/>
      <point x="490" y="298" type="curve" smooth="yes"/>
      <point x="473" y="299"/>
      <point x="456" y="299"/>
    </contour>
  </outline>
</glyph>
<glyph name="G.ss3" format="1">
  <advance width="715"/>
  <unicode hex="E022"/>
  <outline>
    <contour>
      <point x="285" y="351" type="curve" smooth="yes"/>
      <point x="285" y="423"/>
      <point x="333" y="482"/>
      <point x="417" y="482" type="curve" smooth="yes"/>
      <point x="499" y="482" type="line"/>
      <point x="655" y="700" type="line"/>
      <point x="417" y="700" type="line" smooth="yes"/>
      <point x="214" y="700"/>
      <point x="50" y="554"/>
      <point x="50" y="351" type="curve" smooth="yes"/>
      <point x="50" y="148"/>
      <point x="214" y="0"/>
      <point x="417" y="0" type="curve" smooth="yes"/>
      <point x="695" y="0" type="line"/>
      <point x="695" y="368" type="line"/>
      <point x="470" y="398" type="line"/>
      <point x="470" y="219" type="line"/>
      <point x="417" y="219" type="line" smooth="yes"/>
      <point x="345" y="219"/>
      <point x="285" y="279"/>
    </contour>
    <contour>
      <point x="236" y="351" type="curve" smooth="yes"/>
      <point x="236" y="255"/>
      <point x="318" y="172"/>
      <point x="417" y="172" type="curve" smooth="yes"/>
      <point x="517" y="172" type="line"/>
      <point x="517" y="345" type="line"/>
      <point x="649" y="326" type="line"/>
      <point x="649" y="47" type="line"/>
      <point x="417" y="47" type="line" smooth="yes"/>
      <point x="214" y="47"/>
      <point x="98" y="191"/>
      <point x="98" y="351" type="curve" smooth="yes"/>
      <point x="98" y="527"/>
      <point x="230" y="653"/>
      <point x="417" y="653" type="curve" smooth="yes"/>
      <point x="564" y="653" type="line"/>
      <point x="480" y="529" type="line"/>
      <point x="417" y="529" type="line" smooth="yes"/>
      <point x="316" y="529"/>
      <point x="236" y="450"/>
    </contour>
  </outline>
</glyph>
<glyph name="G.ss4" format="1">
  <advance width="729"/>
  <unicode hex="E023"/>
  <outline>
    <contour>
      <point x="412" y="-23" type="line"/>
      <point x="544" y="113" type="line"/>
      <point x="719" y="292" type="line"/>
      <point x="680" y="467" type="line"/>
      <point x="520" y="490" type="line"/>
      <point x="684" y="659" type="line"/>
      <point x="277" y="711" type="line"/>
      <point x="276" y="710" type="line"/>
      <point x="276" y="711" type="line"/>
      <point x="76" y="507" type="line"/>
      <point x="70" y="97" type="line"/>
    </contour>
    <contour>
      <point x="271" y="518" type="line"/>
      <point x="510" y="485" type="line"/>
      <point x="357" y="314" type="line"/>
      <point x="503" y="291" type="line"/>
      <point x="537" y="144" type="line"/>
      <point x="263" y="244" type="line"/>
    </contour>
  </outline>
</glyph>
<glyph name="G.ss5" format="1">
  <advance width="775"/>
  <unicode hex="E024"/>
  <outline>
    <contour>
      <point x="50" y="347" type="curve" smooth="yes"/>
      <point x="50" y="547"/>
      <point x="210" y="710"/>
      <point x="410" y="710" type="curve" smooth="yes"/>
      <point x="517" y="710"/>
      <point x="613" y="672"/>
      <point x="669" y="620" type="curve"/>
      <point x="663" y="425" type="line"/>
      <point x="660" y="425" type="line"/>
      <point x="652" y="614" type="line"/>
      <point x="601" y="659"/>
      <point x="513" y="703"/>
      <point x="410" y="703" type="curve" smooth="yes"/>
      <point x="217" y="703"/>
      <point x="72" y="542"/>
      <point x="72" y="347" type="curve" smooth="yes"/>
      <point x="72" y="152"/>
      <point x="219" y="-7"/>
      <point x="413" y="-7" type="curve" smooth="yes"/>
      <point x="585" y="-7"/>
      <point x="729" y="115"/>
      <point x="719" y="322" type="curve"/>
      <point x="381" y="337" type="line"/>
      <point x="381" y="338" type="line"/>
      <point x="740" y="338" type="line"/>
      <point x="740" y="331" type="line"/>
      <point x="750" y="142"/>
      <point x="623" y="-16"/>
      <point x="413" y="-16" type="curve" smooth="yes"/>
      <point x="207" y="-16"/>
      <point x="50" y="158"/>
    </contour>
  </outline>
</glyph>
<glyph name="H.ss1" format="1">
  <advance width="784"/>
  <unicode hex="E025"/>
  <outline>
    <contour>
      <point x="229" y="0" type="line"/>
      <point x="276" y="0" type="line"/>
      <point x="276" y="254" type="line"/>
      <point x="506" y="254" type="line"/>
      <point x="506" y="0" type="line"/>
      <point x="552" y="0" type="line"/>
      <point x="552" y="298" type="line"/>
      <point x="229" y="298" type="line"/>
    </contour>
    <contour>
      <point x="552" y="700" type="line"/>
      <point x="506" y="700" type="line"/>
      <point x="506" y="446" type="line"/>
      <point x="276" y="446" type="line"/>
      <point x="276" y="700" type="line"/>
      <point x="229" y="700" type="line"/>
      <point x="229" y="402" type="line"/>
      <point x="552" y="402" type="line"/>
    </contour>
    <contour>
      <point x="127" y="700" type="line"/>
      <point x="80" y="700" type="line"/>
      <point x="80" y="0" type="line"/>
      <point x="127" y="0" type="line"/>
    </contour>
    <contour>
      <point x="704" y="700" type="line"/>
      <point x="657" y="700" type="line"/>
      <point x="657" y="0" type="line"/>
      <point x="704" y="0" type="line"/>
    </contour>
  </outline>
</glyph>
<glyph name="H.ss2" format="1">
  <advance width="664"/>
  <unicode hex="E026"/>
  <outline>
    <contour>
      <point x="373" y="1" type="line"/>
      <point x="584" y="1" type="line"/>
      <point x="584" y="702" type="line"/>
      <point x="373" y="702" type="line"/>
      <point x="373" y="445" type="line"/>
      <point x="291" y="445" type="line"/>
      <point x="291" y="702" type="line"/>
      <point x="80" y="702" type="line"/>
      <point x="80" y="1" type="line"/>
      <point x="291" y="1" type="line"/>
      <point x="291" y="260" type="line"/>
      <point x="373" y="260" type="line"/>
    </contour>
  </outline>
</glyph>
<glyph name="H.ss3" format="1">
  <advance width="700"/>
  <unicode hex="E027"/>
  <outline>
    <contour>
      <point x="473" y="700" type="line"/>
      <point x="473" y="694" type="line"/>
      <point x="500" y="687" type="line" smooth="yes"/>
      <point x="523" y="680"/>
      <point x="526" y="665"/>
      <point x="526" y="626" type="curve" smooth="yes"/>
      <point x="526" y="406" type="line"/>
      <point x="174" y="406" type="line"/>
      <point x="174" y="639" type="line"/>
      <point x="175" y="668"/>
      <point x="180" y="680"/>
      <point x="200" y="687" type="curve"/>
      <point x="227" y="694" type="line"/>
      <point x="227" y="700" type="line"/>
      <point x="30" y="700" type="line"/>
      <point x="30" y="694" type="line"/>
      <point x="57" y="687" type="line"/>
      <point x="77" y="680"/>
      <point x="82" y="668"/>
      <point x="83" y="639" type="curve"/>
      <point x="83" y="60" type="line"/>
      <point x="82" y="31"/>
      <point x="77" y="18"/>
      <point x="57" y="13" type="curve" smooth="yes"/>
      <point x="30" y="6" type="line"/>
      <point x="30" y="0" type="line"/>
      <point x="227" y="0" type="line"/>
      <point x="227" y="6" type="line"/>
      <point x="200" y="13" type="line" smooth="yes"/>
      <point x="180" y="18"/>
      <point x="175" y="31"/>
      <point x="174" y="60" type="curve"/>
      <point x="174" y="306" type="line"/>
      <point x="526" y="306" type="line"/>
      <point x="526" y="60" type="line"/>
      <point x="525" y="31"/>
      <point x="520" y="18"/>
      <point x="500" y="13" type="curve" smooth="yes"/>
      <point x="473" y="6" type="line"/>
      <point x="473" y="0" type="line"/>
      <point x="670" y="0" type="line"/>
      <point x="670" y="6" type="line"/>
      <point x="643" y="13" type="line" smooth="yes"/>
      <point x="623" y="18"/>
      <point x="618" y="31"/>
      <point x="617" y="60" type="curve"/>
      <point x="617" y="626" type="line" smooth="yes"/>
      <point x="617" y="665"/>
      <point x="620" y="680"/>
      <point x="643" y="687" type="curve" smooth="yes"/>
      <point x="670" y="694" type="line"/>
      <point x="670" y="700" type="line"/>
    </contour>
    <contour>
      <point x="174" y="333" type="line"/>
      <point x="174" y="378" type="line"/>
      <point x="526" y="378" type="line"/>
      <point x="526" y="333" type="line"/>
    </contour>
  </outline>
</glyph>
<glyph name="H.ss4" format="1">
  <advance width="617"/>
  <unicode hex="E028"/>
  <outline>
    <contour>
      <point x="553" y="0" type="line"/>
      <point x="553" y="0"/>
      <point x="519" y="84"/>
      <point x="519" y="371" type="curve"/>
      <point x="519" y="379" type="line"/>
      <point x="530" y="381"/>
      <point x="566" y="380"/>
      <point x="577" y="379" type="curve"/>
      <point x="520" y="463" type="line"/>
      <point x="520" y="616"/>
      <point x="554" y="700"/>
      <point x="554" y="700" type="curve"/>
      <point x="437" y="700" type="line"/>
      <point x="437" y="700"/>
      <point x="458" y="599"/>
      <point x="458" y="457" type="curve"/>
      <point x="276" y="437"/>
      <point x="158" y="297"/>
      <point x="158" y="297" type="curve"/>
      <point x="158" y="297"/>
      <point x="156" y="331"/>
      <point x="156" y="371" type="curve"/>
      <point x="156" y="600"/>
      <point x="176" y="700"/>
      <point x="176" y="700" type="curve"/>
      <point x="60" y="700" type="line"/>
      <point x="60" y="700"/>
      <point x="94" y="622"/>
      <point x="94" y="371" type="curve"/>
      <point x="94" y="85"/>
      <point x="60" y="0"/>
      <point x="60" y="0" type="curve"/>
      <point x="179" y="0" type="line"/>
      <point x="179" y="0"/>
      <point x="159" y="128"/>
      <point x="159" y="261" type="curve"/>
      <point x="159" y="261"/>
      <point x="245" y="368"/>
      <point x="459" y="378" type="curve"/>
      <point x="459" y="103"/>
      <point x="441" y="0"/>
      <point x="441" y="0" type="curve"/>
    </contour>
  </outline>
</glyph>
<glyph name="H.ss5" format="1">
  <advance width="835"/>
  <unicode hex="E029"/>
  <outline>
    <contour>
      <point x="80" y="0" type="line"/>
      <point x="755" y="0" type="line"/>
      <point x="755" y="700" type="line"/>
      <point x="80" y="700" type="line"/>
    </contour>
    <contour>
      <point x="116" y="665" type="line"/>
      <point x="399" y="665" type="line"/>
      <point x="399" y="450" type="line"/>
      <point x="436" y="450" type="line"/>
      <point x="436" y="665" type="line"/>
      <point x="719" y="665" type="line"/>
      <point x="719" y="35" type="line"/>
      <point x="436" y="35" type="line"/>
      <point x="436" y="250" type="line"/>
      <point x="399" y="250" type="line"/>
      <point x="399" y="35" type="line"/>
      <point x="116" y="35" type="line"/>
    </contour>
  </outline>
</glyph>
<glyph name="I.ss1" format="1">
  <advance width="405"/>
  <unicode hex="E02A"/>
  <outline>
    <contour>
      <point x="275" y="74" type="curve"/>
      <point x="275" y="626" type="line" smooth="yes"/>
      <point x="275" y="653"/>
      <point x="278" y="671"/>
      <point x="297" y="676" type="curve" smooth="yes"/>
      <point x="412" y="700" type="line"/>
      <point x="-10" y="700" type="line"/>
      <point x="107" y="676" type="line" smooth="yes"/>
      <point x="126" y="671"/>
      <point x="130" y="653"/>
      <point x="130" y="626" type="curve" smooth="yes"/>
      <point x="130" y="74" type="line" smooth="yes"/>
      <point x="130" y="47"/>
      <point x="127" y="29"/>
      <point x="108" y="24" type="curve" smooth="yes"/>
      <point x="-7" y="0" type="line"/>
      <point x="415" y="0" type="line"/>
      <point x="298" y="24" type="line" smooth="yes"/>
      <point x="279" y="29"/>
      <point x="275" y="47"/>
    </contour>
  </outline>
</glyph>
<glyph name="I.ss2" format="1">
  <advance width="250"/>
  <unicode hex="E02B"/>
  <outline>
    <contour>
      <point x="-5" y="0" type="line"/>
      <point x="255" y="0" type="line"/>
      <point x="255" y="47" type="line"/>
      <point x="181" y="47" type="line"/>
      <point x="181" y="653" type="line"/>
      <point x="255" y="653" type="line"/>
      <point x="255" y="700" type="line"/>
      <point x="-5" y="700" type="line"/>
      <point x="-5" y="653" type="line"/>
      <point x="69" y="653" type="line"/>
      <point x="69" y="47" type="line"/>
      <point x="-5" y="47" type="line"/>
    </contour>
    <contour>
      <point x="81" y="653" type="line"/>
      <point x="103" y="653" type="line"/>
      <point x="103" y="47" type="line"/>
      <point x="81" y="47" type="line"/>
    </contour>
    <contour>
      <point x="115" y="653" type="line"/>
      <point x="135" y="653" type="line"/>
      <point x="135" y="47" type="line"/>
      <point x="115" y="47" type="line"/>
    </contour>
    <contour>
      <point x="147" y="653" type="line"/>
      <point x="169" y="653" type="line"/>
      <point x="169" y="47" type="line"/>
      <point x="147" y="47" type="line"/>
    </contour>
  </outline>
</glyph>
<glyph name="I.ss3" format="1">
  <advance width="264"/>
  <unicode hex="E02C"/>
  <outline>
    <contour>
      <point x="173" y="351" type="curve" smooth="yes"/>
      <point x="173" y="470"/>
      <point x="182" y="555"/>
      <point x="193" y="614" type="curve" smooth="yes"/>
      <point x="199" y="648"/>
      <point x="206" y="677"/>
      <point x="214" y="700" type="curve"/>
      <point x="50" y="700" type="line"/>
      <point x="57" y="677"/>
      <point x="64" y="648"/>
      <point x="70" y="614" type="curve" smooth="yes"/>
      <point x="81" y="555"/>
      <point x="91" y="470"/>
      <point x="91" y="351" type="curve" smooth="yes"/>
      <point x="91" y="240"/>
      <point x="81" y="153"/>
      <point x="70" y="93" type="curve" smooth="yes"/>
      <point x="64" y="58"/>
      <point x="57" y="27"/>
      <point x="50" y="0" type="curve"/>
      <point x="214" y="0" type="line"/>
      <point x="206" y="27"/>
      <point x="199" y="59"/>
      <point x="193" y="95" type="curve" smooth="yes"/>
      <point x="182" y="156"/>
      <point x="173" y="243"/>
    </contour>
  </outline>
</glyph>
